<svg width="732" height="669" viewBox="0 0 732 669" fill="none" xmlns="http://www.w3.org/2000/svg">
<mask id="path-1-inside-1_12_2" fill="white">
<path d="M729.501 202.542C726.898 195.746 722.365 189.904 717.55 185.916C712.718 181.846 707.693 179.108 702.836 176.998C693.092 172.882 683.769 170.948 674.706 169.68C668.786 168.89 662.958 168.421 657.186 168.153C599.024 67.7585 489.779 -1.5832e-05 364.878 -1.5832e-05C251.083 -1.5832e-05 150.301 56.2505 89.2852 142.169C81.3972 142.121 73.3786 142.449 65.1533 143.405C56.1106 144.564 46.7533 146.312 36.9053 150.789C32.0253 153.04 26.9334 156.13 22.3667 160.716C20.072 162.938 18.0187 165.682 16.2614 168.57C14.6107 171.544 13.1814 174.714 12.4067 177.981C10.6561 184.541 10.9747 190.893 11.9934 196.394C13.0467 201.937 14.8494 206.787 16.9054 211.226C21.0654 220.083 26.2387 227.453 31.6653 234.322C34.4787 237.826 37.3773 241.186 40.3387 244.435C32.3213 272.957 28.0187 302.998 28.0187 334.022C28.0187 354.819 29.9787 375.306 33.7053 395.338C29.8494 398.935 26.068 402.684 22.4094 406.679C16.3614 413.346 10.5734 420.666 5.90275 429.788C3.60942 434.375 1.60942 439.507 0.584093 445.45C-0.474571 451.326 -0.167905 458.319 2.11342 464.836C4.46275 471.327 8.66807 476.999 13.2441 480.956C17.8307 484.992 22.6747 487.796 27.4014 489.987C36.8853 494.283 46.1027 496.491 55.1 498.021C60.9706 498.989 66.7706 499.651 72.5266 500.119C79.3359 511.851 86.8999 523.237 95.2065 534.223C102.121 543.369 115.205 545.225 124.43 538.365C133.656 531.507 135.524 518.533 128.606 509.388C126.309 506.351 124.086 503.271 121.916 500.164C151.312 498.403 180.128 494.275 208.652 489.113C212.004 488.507 215.345 487.868 218.686 487.225L182.33 595.683L182.325 595.696L182.205 596.051C182.146 596.228 182.112 596.405 182.054 596.584C181.918 597.029 181.784 597.477 181.678 597.931C181.618 598.184 181.58 598.436 181.532 598.691C181.452 599.099 181.372 599.505 181.32 599.915C181.277 600.228 181.257 600.541 181.232 600.856C181.204 601.203 181.169 601.549 181.158 601.895C181.146 602.255 181.154 602.615 181.161 602.973C181.166 603.275 181.169 603.577 181.189 603.876C181.217 604.256 181.255 604.635 181.302 605.012C181.337 605.293 181.369 605.576 181.412 605.858C181.47 606.232 181.55 606.596 181.63 606.962C181.693 607.25 181.753 607.536 181.83 607.821C181.921 608.162 182.026 608.496 182.134 608.832C182.232 609.138 182.328 609.445 182.441 609.746C182.553 610.045 182.678 610.336 182.804 610.63C182.944 610.957 183.084 611.284 183.24 611.604C183.369 611.863 183.505 612.119 183.646 612.372C183.829 612.705 184.01 613.041 184.21 613.365C184.357 613.605 184.517 613.837 184.674 614.069C184.888 614.388 185.101 614.704 185.334 615.012C185.517 615.252 185.713 615.484 185.908 615.718C186.138 615.994 186.362 616.27 186.61 616.536C186.85 616.796 187.106 617.042 187.36 617.29C187.581 617.508 187.798 617.728 188.029 617.934C188.345 618.218 188.681 618.485 189.02 618.75C189.213 618.902 189.401 619.064 189.602 619.21C189.989 619.496 190.397 619.757 190.81 620.014C190.958 620.108 191.092 620.213 191.24 620.302C191.304 620.339 191.369 620.376 191.434 620.413C191.523 620.466 191.613 620.518 191.705 620.568C243.86 651.621 303.725 668.04 364.869 668.04C478.798 668.04 579.681 611.656 640.674 525.563C646.95 525.969 653.345 526.104 659.912 525.805C668.929 525.345 678.37 524.227 688.24 520.539C693.149 518.693 698.194 516.165 702.934 512.515C707.665 508.896 711.992 504.045 715.022 498.531L716.144 496.444L717.184 494.033C717.901 492.424 718.308 490.749 718.812 489.084C719.578 485.772 720.042 482.404 720.013 479.271C720.053 472.923 718.849 467.274 717.246 462.231C713.94 452.168 709.153 444.068 704.108 436.53C699.84 430.366 695.298 424.663 690.592 419.247C697.841 392.027 701.722 363.463 701.722 334.011C701.722 314.775 700.05 295.925 696.888 277.569C701.392 273.207 705.794 268.622 710.04 263.706C716.016 256.713 721.746 249.039 726.352 239.447C728.609 234.625 730.574 229.218 731.514 222.945C732.505 216.762 732.044 209.362 729.501 202.544M659.985 334.026C659.985 351.296 658.456 368.22 655.549 384.678C654.114 383.422 652.69 382.142 651.244 380.904C636.15 367.966 620.439 356.038 604.393 344.704C612.861 339.728 621.256 334.602 629.527 329.223C639.461 322.801 649.265 316.103 658.898 309.045C659.605 317.283 659.985 325.613 659.985 334.026ZM453.643 466.195C440.716 458.674 427.707 451.524 414.6 444.67C409.774 442.078 404.907 439.59 400.027 437.134C400.814 436.86 401.606 436.6 402.391 436.323C414.928 431.907 427.399 427.294 439.826 422.554L453.643 466.195ZM388.434 398.258C375.131 403.134 361.754 407.838 348.331 412.4C341.002 409.196 333.502 405.794 326.43 402.534C316.239 397.739 306.114 392.795 296.023 387.774L338.793 260.177C343.941 258.314 349.114 256.518 354.286 254.717C363.545 258.731 372.779 262.809 381.959 267.01C385.332 268.549 388.692 270.123 392.06 271.679L427.374 383.212C414.45 388.368 401.478 393.402 388.434 398.258ZM319.109 422.066C306.335 426.136 293.499 429.99 280.629 433.698L289.301 407.83C298.685 412.403 308.095 416.923 317.574 421.342L319.109 422.066ZM69.7693 334.026C69.7693 314.59 71.7079 295.597 75.3732 277.21C96.0932 294.357 117.933 309.586 140.096 324.15C116.716 336.779 93.6425 350.152 71.4959 365.496C70.3813 355.11 69.7693 344.616 69.7693 334.026ZM159.672 308.943C146.512 300.05 133.645 290.774 121.206 281.057C108.756 271.363 96.6599 261.293 85.2932 250.69C84.4266 249.883 83.5732 249.063 82.7159 248.249C90.3985 223.45 101.327 200.053 114.996 178.529C144.836 182.825 174.817 190.417 204.366 199.257C234.632 208.198 264.567 218.683 294.129 230.177C297.298 231.383 300.449 232.649 303.611 233.879L297.038 253.483C277.185 261.03 257.461 268.935 237.937 277.346C212.99 288.134 188.244 299.473 163.914 311.755C162.508 310.806 161.074 309.897 159.672 308.942M355.405 210.619L364.314 184.042L375.384 219.005C368.745 216.165 362.085 213.366 355.405 210.619ZM288.246 279.722L258.514 368.431C233.925 355.244 209.805 341.255 186.322 326.367C219.456 309.255 253.557 293.822 288.246 279.722ZM443.667 296.47C451.674 300.494 459.648 304.574 467.567 308.755C481.591 316.163 495.5 323.767 509.224 331.653C514.468 334.62 519.668 337.655 524.864 340.691C505.485 349.926 485.864 358.746 466.064 367.214L443.667 296.47ZM648.738 270.394C623.395 288.771 595.499 304.67 567.184 319.695C554.852 311.779 542.407 304.066 529.804 296.646C515.684 288.406 501.404 280.475 487.02 272.754C467.047 262.105 446.864 251.863 426.454 242.106L423.519 232.837C457.715 223.147 492.302 214.998 527.159 208.869C559.249 203.315 591.629 199.227 623.488 198.459C624.431 198.437 625.373 198.43 626.319 198.417C637.79 220.075 646.62 243.314 652.342 267.729C651.144 268.621 649.949 269.513 648.738 270.394ZM364.878 41.4012C466.258 41.4012 555.855 92.3611 609.004 169.797C579.46 172.654 550.653 177.984 522.185 184.306C489.528 191.589 457.354 200.32 425.483 209.87C422.667 210.699 419.874 211.598 417.063 212.45L384.795 110.526C382.08 101.957 374.108 96.1011 365.051 96.0277C356.011 95.9797 347.925 101.677 345.069 110.198L316.538 195.316C313.89 194.313 311.258 193.275 308.609 192.292C277.857 181.156 246.675 171.054 214.913 162.477C189.908 155.926 164.58 150.234 138.601 146.409C192.774 82.2665 274.098 41.4012 364.878 41.4012ZM44.2253 199.337C41.772 193.583 41.2413 188.25 42.2187 185.997C42.6507 184.788 43.2053 183.946 44.4253 182.89C45.596 181.844 47.48 180.669 49.96 179.69C54.8066 177.704 61.3733 176.51 68.1893 175.97C61.8399 187.645 56.1653 199.73 51.228 212.181C48.392 207.869 45.9426 203.521 44.2253 199.337ZM39.9893 462.326C37.196 461.156 34.8347 459.784 33.1813 458.443C31.4747 457.086 30.7347 455.891 30.1454 454.731C29.7214 453.511 29.3734 452.091 29.6787 449.891C29.9587 447.74 30.7747 445.08 32.0653 442.302C34.2573 437.598 37.5827 432.662 41.444 427.871C45.3186 441.048 50.0373 453.956 55.5466 466.56C49.8573 465.584 44.48 464.198 39.9893 462.326ZM201.505 453.807C169.862 460.626 137.866 466.047 106.198 468.104C104.991 468.179 103.784 468.238 102.576 468.3C90.4292 445.078 81.5746 420.443 76.1479 394.88C76.7097 394.43 77.2732 393.981 77.8386 393.534C103.019 373.967 130.629 356.614 159.093 340.876C160.4 340.151 161.733 339.466 163.046 338.746C185.206 352.427 207.834 365.254 230.625 377.708C237.604 381.503 244.614 385.227 251.65 388.898L232.302 446.622C222.06 449.14 211.801 451.574 201.505 453.808M364.878 626.652C316.718 626.652 269.491 615.005 227.265 592.909L266.162 476.861C279.73 473.581 293.233 470.08 306.678 466.407C327.885 460.627 348.887 454.198 369.746 447.363C380.572 453.416 391.23 459.746 401.546 466.544C414.735 475.237 427.559 484.424 439.578 494.424C445.498 499.519 451.458 504.523 456.927 509.937C459.7 512.617 462.367 515.328 464.967 518.069C466.198 519.461 467.496 520.856 468.663 522.233C469.794 523.544 471.16 525.156 471.722 526.091C472.983 528.18 474.666 530.161 476.687 531.78C480.468 534.809 484.974 536.327 489.483 536.464C492.111 536.687 494.824 536.424 497.496 535.593C508.496 532.169 514.613 520.551 511.16 509.647L478.675 407.044C484.408 404.644 490.142 402.251 495.839 399.76C511.191 393.071 526.379 385.987 541.461 378.64C549.713 374.539 557.908 370.312 566.068 366C587.201 379.686 607.708 394.16 627.148 409.532C633.397 414.53 639.504 419.659 645.39 424.931C637.164 449.834 625.652 473.267 611.367 494.739C604.037 493.909 596.672 492.879 589.312 491.689C573.779 489.097 558.165 486.063 542.619 482.531L542.525 482.508C537.325 481.345 531.992 484.279 530.305 489.405C528.519 494.844 531.516 500.691 536.999 502.464C552.52 507.481 568.179 512.317 584.235 516.163C587.43 516.936 590.638 517.683 593.859 518.403C539.701 584.405 457.178 626.652 364.878 626.652ZM684.98 473.027C685.945 475.552 686.432 477.821 686.526 479.48C686.628 480.348 686.505 480.96 686.482 481.563C686.366 481.797 686.426 482.116 686.296 482.325C686.252 482.441 686.221 482.563 686.201 482.692L685.921 483.263C685.198 484.82 684.21 486.193 682.656 487.571C681.116 488.937 678.989 490.247 676.426 491.371C671.79 493.407 665.868 494.804 659.593 495.62C666.161 483.887 672.038 471.72 677.169 459.179C680.512 463.919 683.348 468.712 684.98 473.027ZM697.718 217.798C697.354 219.622 696.502 222.002 695.178 224.545C693.2 228.341 690.365 232.389 687.041 236.382C683.416 224.645 679.15 213.182 674.294 202.029C679.849 203.213 685.05 204.79 689.288 206.786C691.946 208.039 694.128 209.477 695.537 210.785C697.001 212.114 697.417 213.137 697.75 213.995C697.914 214.913 698.106 215.923 697.718 217.798Z"/>
</mask>
<path d="M729.501 202.542C726.898 195.746 722.365 189.904 717.55 185.916C712.718 181.846 707.693 179.108 702.836 176.998C693.092 172.882 683.769 170.948 674.706 169.68C668.786 168.89 662.958 168.421 657.186 168.153C599.024 67.7585 489.779 -1.5832e-05 364.878 -1.5832e-05C251.083 -1.5832e-05 150.301 56.2505 89.2852 142.169C81.3972 142.121 73.3786 142.449 65.1533 143.405C56.1106 144.564 46.7533 146.312 36.9053 150.789C32.0253 153.04 26.9334 156.13 22.3667 160.716C20.072 162.938 18.0187 165.682 16.2614 168.57C14.6107 171.544 13.1814 174.714 12.4067 177.981C10.6561 184.541 10.9747 190.893 11.9934 196.394C13.0467 201.937 14.8494 206.787 16.9054 211.226C21.0654 220.083 26.2387 227.453 31.6653 234.322C34.4787 237.826 37.3773 241.186 40.3387 244.435C32.3213 272.957 28.0187 302.998 28.0187 334.022C28.0187 354.819 29.9787 375.306 33.7053 395.338C29.8494 398.935 26.068 402.684 22.4094 406.679C16.3614 413.346 10.5734 420.666 5.90275 429.788C3.60942 434.375 1.60942 439.507 0.584093 445.45C-0.474571 451.326 -0.167905 458.319 2.11342 464.836C4.46275 471.327 8.66807 476.999 13.2441 480.956C17.8307 484.992 22.6747 487.796 27.4014 489.987C36.8853 494.283 46.1027 496.491 55.1 498.021C60.9706 498.989 66.7706 499.651 72.5266 500.119C79.3359 511.851 86.8999 523.237 95.2065 534.223C102.121 543.369 115.205 545.225 124.43 538.365C133.656 531.507 135.524 518.533 128.606 509.388C126.309 506.351 124.086 503.271 121.916 500.164C151.312 498.403 180.128 494.275 208.652 489.113C212.004 488.507 215.345 487.868 218.686 487.225L182.33 595.683L182.325 595.696L182.205 596.051C182.146 596.228 182.112 596.405 182.054 596.584C181.918 597.029 181.784 597.477 181.678 597.931C181.618 598.184 181.58 598.436 181.532 598.691C181.452 599.099 181.372 599.505 181.32 599.915C181.277 600.228 181.257 600.541 181.232 600.856C181.204 601.203 181.169 601.549 181.158 601.895C181.146 602.255 181.154 602.615 181.161 602.973C181.166 603.275 181.169 603.577 181.189 603.876C181.217 604.256 181.255 604.635 181.302 605.012C181.337 605.293 181.369 605.576 181.412 605.858C181.47 606.232 181.55 606.596 181.63 606.962C181.693 607.25 181.753 607.536 181.83 607.821C181.921 608.162 182.026 608.496 182.134 608.832C182.232 609.138 182.328 609.445 182.441 609.746C182.553 610.045 182.678 610.336 182.804 610.63C182.944 610.957 183.084 611.284 183.24 611.604C183.369 611.863 183.505 612.119 183.646 612.372C183.829 612.705 184.01 613.041 184.21 613.365C184.357 613.605 184.517 613.837 184.674 614.069C184.888 614.388 185.101 614.704 185.334 615.012C185.517 615.252 185.713 615.484 185.908 615.718C186.138 615.994 186.362 616.27 186.61 616.536C186.85 616.796 187.106 617.042 187.36 617.29C187.581 617.508 187.798 617.728 188.029 617.934C188.345 618.218 188.681 618.485 189.02 618.75C189.213 618.902 189.401 619.064 189.602 619.21C189.989 619.496 190.397 619.757 190.81 620.014C190.958 620.108 191.092 620.213 191.24 620.302C191.304 620.339 191.369 620.376 191.434 620.413C191.523 620.466 191.613 620.518 191.705 620.568C243.86 651.621 303.725 668.04 364.869 668.04C478.798 668.04 579.681 611.656 640.674 525.563C646.95 525.969 653.345 526.104 659.912 525.805C668.929 525.345 678.37 524.227 688.24 520.539C693.149 518.693 698.194 516.165 702.934 512.515C707.665 508.896 711.992 504.045 715.022 498.531L716.144 496.444L717.184 494.033C717.901 492.424 718.308 490.749 718.812 489.084C719.578 485.772 720.042 482.404 720.013 479.271C720.053 472.923 718.849 467.274 717.246 462.231C713.94 452.168 709.153 444.068 704.108 436.53C699.84 430.366 695.298 424.663 690.592 419.247C697.841 392.027 701.722 363.463 701.722 334.011C701.722 314.775 700.05 295.925 696.888 277.569C701.392 273.207 705.794 268.622 710.04 263.706C716.016 256.713 721.746 249.039 726.352 239.447C728.609 234.625 730.574 229.218 731.514 222.945C732.505 216.762 732.044 209.362 729.501 202.544M659.985 334.026C659.985 351.296 658.456 368.22 655.549 384.678C654.114 383.422 652.69 382.142 651.244 380.904C636.15 367.966 620.439 356.038 604.393 344.704C612.861 339.728 621.256 334.602 629.527 329.223C639.461 322.801 649.265 316.103 658.898 309.045C659.605 317.283 659.985 325.613 659.985 334.026ZM453.643 466.195C440.716 458.674 427.707 451.524 414.6 444.67C409.774 442.078 404.907 439.59 400.027 437.134C400.814 436.86 401.606 436.6 402.391 436.323C414.928 431.907 427.399 427.294 439.826 422.554L453.643 466.195ZM388.434 398.258C375.131 403.134 361.754 407.838 348.331 412.4C341.002 409.196 333.502 405.794 326.43 402.534C316.239 397.739 306.114 392.795 296.023 387.774L338.793 260.177C343.941 258.314 349.114 256.518 354.286 254.717C363.545 258.731 372.779 262.809 381.959 267.01C385.332 268.549 388.692 270.123 392.06 271.679L427.374 383.212C414.45 388.368 401.478 393.402 388.434 398.258ZM319.109 422.066C306.335 426.136 293.499 429.99 280.629 433.698L289.301 407.83C298.685 412.403 308.095 416.923 317.574 421.342L319.109 422.066ZM69.7693 334.026C69.7693 314.59 71.7079 295.597 75.3732 277.21C96.0932 294.357 117.933 309.586 140.096 324.15C116.716 336.779 93.6425 350.152 71.4959 365.496C70.3813 355.11 69.7693 344.616 69.7693 334.026ZM159.672 308.943C146.512 300.05 133.645 290.774 121.206 281.057C108.756 271.363 96.6599 261.293 85.2932 250.69C84.4266 249.883 83.5732 249.063 82.7159 248.249C90.3985 223.45 101.327 200.053 114.996 178.529C144.836 182.825 174.817 190.417 204.366 199.257C234.632 208.198 264.567 218.683 294.129 230.177C297.298 231.383 300.449 232.649 303.611 233.879L297.038 253.483C277.185 261.03 257.461 268.935 237.937 277.346C212.99 288.134 188.244 299.473 163.914 311.755C162.508 310.806 161.074 309.897 159.672 308.942M355.405 210.619L364.314 184.042L375.384 219.005C368.745 216.165 362.085 213.366 355.405 210.619ZM288.246 279.722L258.514 368.431C233.925 355.244 209.805 341.255 186.322 326.367C219.456 309.255 253.557 293.822 288.246 279.722ZM443.667 296.47C451.674 300.494 459.648 304.574 467.567 308.755C481.591 316.163 495.5 323.767 509.224 331.653C514.468 334.62 519.668 337.655 524.864 340.691C505.485 349.926 485.864 358.746 466.064 367.214L443.667 296.47ZM648.738 270.394C623.395 288.771 595.499 304.67 567.184 319.695C554.852 311.779 542.407 304.066 529.804 296.646C515.684 288.406 501.404 280.475 487.02 272.754C467.047 262.105 446.864 251.863 426.454 242.106L423.519 232.837C457.715 223.147 492.302 214.998 527.159 208.869C559.249 203.315 591.629 199.227 623.488 198.459C624.431 198.437 625.373 198.43 626.319 198.417C637.79 220.075 646.62 243.314 652.342 267.729C651.144 268.621 649.949 269.513 648.738 270.394ZM364.878 41.4012C466.258 41.4012 555.855 92.3611 609.004 169.797C579.46 172.654 550.653 177.984 522.185 184.306C489.528 191.589 457.354 200.32 425.483 209.87C422.667 210.699 419.874 211.598 417.063 212.45L384.795 110.526C382.08 101.957 374.108 96.1011 365.051 96.0277C356.011 95.9797 347.925 101.677 345.069 110.198L316.538 195.316C313.89 194.313 311.258 193.275 308.609 192.292C277.857 181.156 246.675 171.054 214.913 162.477C189.908 155.926 164.58 150.234 138.601 146.409C192.774 82.2665 274.098 41.4012 364.878 41.4012ZM44.2253 199.337C41.772 193.583 41.2413 188.25 42.2187 185.997C42.6507 184.788 43.2053 183.946 44.4253 182.89C45.596 181.844 47.48 180.669 49.96 179.69C54.8066 177.704 61.3733 176.51 68.1893 175.97C61.8399 187.645 56.1653 199.73 51.228 212.181C48.392 207.869 45.9426 203.521 44.2253 199.337ZM39.9893 462.326C37.196 461.156 34.8347 459.784 33.1813 458.443C31.4747 457.086 30.7347 455.891 30.1454 454.731C29.7214 453.511 29.3734 452.091 29.6787 449.891C29.9587 447.74 30.7747 445.08 32.0653 442.302C34.2573 437.598 37.5827 432.662 41.444 427.871C45.3186 441.048 50.0373 453.956 55.5466 466.56C49.8573 465.584 44.48 464.198 39.9893 462.326ZM201.505 453.807C169.862 460.626 137.866 466.047 106.198 468.104C104.991 468.179 103.784 468.238 102.576 468.3C90.4292 445.078 81.5746 420.443 76.1479 394.88C76.7097 394.43 77.2732 393.981 77.8386 393.534C103.019 373.967 130.629 356.614 159.093 340.876C160.4 340.151 161.733 339.466 163.046 338.746C185.206 352.427 207.834 365.254 230.625 377.708C237.604 381.503 244.614 385.227 251.65 388.898L232.302 446.622C222.06 449.14 211.801 451.574 201.505 453.808M364.878 626.652C316.718 626.652 269.491 615.005 227.265 592.909L266.162 476.861C279.73 473.581 293.233 470.08 306.678 466.407C327.885 460.627 348.887 454.198 369.746 447.363C380.572 453.416 391.23 459.746 401.546 466.544C414.735 475.237 427.559 484.424 439.578 494.424C445.498 499.519 451.458 504.523 456.927 509.937C459.7 512.617 462.367 515.328 464.967 518.069C466.198 519.461 467.496 520.856 468.663 522.233C469.794 523.544 471.16 525.156 471.722 526.091C472.983 528.18 474.666 530.161 476.687 531.78C480.468 534.809 484.974 536.327 489.483 536.464C492.111 536.687 494.824 536.424 497.496 535.593C508.496 532.169 514.613 520.551 511.16 509.647L478.675 407.044C484.408 404.644 490.142 402.251 495.839 399.76C511.191 393.071 526.379 385.987 541.461 378.64C549.713 374.539 557.908 370.312 566.068 366C587.201 379.686 607.708 394.16 627.148 409.532C633.397 414.53 639.504 419.659 645.39 424.931C637.164 449.834 625.652 473.267 611.367 494.739C604.037 493.909 596.672 492.879 589.312 491.689C573.779 489.097 558.165 486.063 542.619 482.531L542.525 482.508C537.325 481.345 531.992 484.279 530.305 489.405C528.519 494.844 531.516 500.691 536.999 502.464C552.52 507.481 568.179 512.317 584.235 516.163C587.43 516.936 590.638 517.683 593.859 518.403C539.701 584.405 457.178 626.652 364.878 626.652ZM684.98 473.027C685.945 475.552 686.432 477.821 686.526 479.48C686.628 480.348 686.505 480.96 686.482 481.563C686.366 481.797 686.426 482.116 686.296 482.325C686.252 482.441 686.221 482.563 686.201 482.692L685.921 483.263C685.198 484.82 684.21 486.193 682.656 487.571C681.116 488.937 678.989 490.247 676.426 491.371C671.79 493.407 665.868 494.804 659.593 495.62C666.161 483.887 672.038 471.72 677.169 459.179C680.512 463.919 683.348 468.712 684.98 473.027ZM697.718 217.798C697.354 219.622 696.502 222.002 695.178 224.545C693.2 228.341 690.365 232.389 687.041 236.382C683.416 224.645 679.15 213.182 674.294 202.029C679.849 203.213 685.05 204.79 689.288 206.786C691.946 208.039 694.128 209.477 695.537 210.785C697.001 212.114 697.417 213.137 697.75 213.995C697.914 214.913 698.106 215.923 697.718 217.798Z" fill="#0C3943"/>
<path d="M717.55 185.916L716.912 186.686L716.906 186.68L717.55 185.916ZM702.836 176.998L703.225 176.077L703.234 176.081L702.836 176.998ZM674.706 169.68L674.839 168.688L674.845 168.689L674.706 169.68ZM657.186 168.153L657.14 169.152L656.595 169.127L656.321 168.654L657.186 168.153ZM89.2852 142.169L90.1005 142.748L89.7993 143.172L89.2791 143.169L89.2852 142.169ZM65.1533 143.405L65.0262 142.413L65.0378 142.412L65.1533 143.405ZM36.9053 150.789L36.4865 149.881L36.4915 149.879L36.9053 150.789ZM22.3667 160.716L23.0753 161.421L23.0689 161.428L23.0625 161.434L22.3667 160.716ZM16.2614 168.57L15.3871 168.085L15.3968 168.067L15.4071 168.05L16.2614 168.57ZM12.4067 177.981L13.3797 178.212L13.3765 178.225L13.3729 178.239L12.4067 177.981ZM11.9934 196.394L11.011 196.581L11.0101 196.576L11.9934 196.394ZM16.9054 211.226L16.0002 211.651L15.998 211.646L16.9054 211.226ZM31.6653 234.322L30.8856 234.948L30.8807 234.942L31.6653 234.322ZM40.3387 244.435L41.0778 243.762L41.4515 244.172L41.3013 244.706L40.3387 244.435ZM33.7053 395.338L34.6885 395.155L34.7889 395.694L34.3875 396.069L33.7053 395.338ZM22.4094 406.679L21.6687 406.007L21.6719 406.004L22.4094 406.679ZM5.90275 429.788L5.00828 429.341L5.01263 429.333L5.90275 429.788ZM0.584093 445.45L1.56956 445.62L1.56825 445.627L0.584093 445.45ZM2.11342 464.836L1.17307 465.177L1.16958 465.167L2.11342 464.836ZM13.2441 480.956L13.8982 480.2L13.9047 480.205L13.2441 480.956ZM27.4014 489.987L26.9887 490.898L26.9809 490.894L27.4014 489.987ZM55.1 498.021L54.9373 499.008L54.9322 499.007L55.1 498.021ZM72.5266 500.119L72.6076 499.122L73.1289 499.164L73.3915 499.617L72.5266 500.119ZM95.2065 534.223L96.0042 533.62L96.0042 533.62L95.2065 534.223ZM124.43 538.365L123.834 537.563L123.834 537.563L124.43 538.365ZM128.606 509.388L127.809 509.991L127.809 509.991L128.606 509.388ZM121.916 500.164L121.096 500.737L120.073 499.273L121.856 499.166L121.916 500.164ZM208.652 489.113L208.83 490.097L208.83 490.097L208.652 489.113ZM218.686 487.225L218.497 486.243L220.178 485.92L219.634 487.543L218.686 487.225ZM182.33 595.683L183.278 596L183.269 596.027L183.259 596.054L182.33 595.683ZM182.325 595.696L181.378 595.375L181.386 595.35L181.396 595.325L182.325 595.696ZM182.205 596.051L181.256 595.736L181.258 595.73L182.205 596.051ZM182.054 596.584L181.098 596.292L181.102 596.278L182.054 596.584ZM181.678 597.931L182.652 598.157L182.651 598.161L181.678 597.931ZM181.532 598.691L182.514 598.876L182.513 598.883L181.532 598.691ZM181.32 599.915L182.312 600.041L182.311 600.049L181.32 599.915ZM181.232 600.856L182.228 600.936L182.228 600.936L181.232 600.856ZM181.158 601.895L182.158 601.925L182.158 601.928L181.158 601.895ZM181.161 602.973L182.161 602.955L182.161 602.955L181.161 602.973ZM181.189 603.876L180.192 603.95L180.191 603.943L181.189 603.876ZM181.302 605.012L182.295 604.888L182.295 604.89L181.302 605.012ZM181.412 605.858L180.424 606.014L180.423 606.008L181.412 605.858ZM181.63 606.962L182.607 606.749L182.607 606.75L181.63 606.962ZM181.83 607.821L182.796 607.56L182.797 607.564L181.83 607.821ZM182.134 608.832L183.086 608.526L183.087 608.529L182.134 608.832ZM182.441 609.746L183.377 609.394L183.377 609.395L182.441 609.746ZM182.804 610.63L181.884 611.024L181.883 611.022L182.804 610.63ZM183.24 611.604L182.345 612.051L182.341 612.042L183.24 611.604ZM183.646 612.372L184.519 611.883L184.523 611.891L183.646 612.372ZM184.21 613.365L185.061 612.84L185.064 612.844L184.21 613.365ZM184.674 614.069L185.502 613.508L185.505 613.513L184.674 614.069ZM185.334 615.012L184.539 615.617L184.537 615.616L185.334 615.012ZM185.908 615.718L185.14 616.36L185.138 616.357L185.908 615.718ZM186.61 616.536L187.341 615.853L187.345 615.858L186.61 616.536ZM187.36 617.29L188.059 616.576L188.06 616.577L187.36 617.29ZM188.029 617.934L188.696 617.19L188.697 617.191L188.029 617.934ZM189.02 618.75L189.636 617.963L189.638 617.964L189.02 618.75ZM189.602 619.21L190.191 618.402L190.196 618.406L189.602 619.21ZM190.81 620.014L191.339 619.166L191.344 619.169L190.81 620.014ZM191.24 620.302L190.745 621.171L190.734 621.165L190.723 621.159L191.24 620.302ZM191.434 620.413L191.928 619.543L191.938 619.549L191.949 619.556L191.434 620.413ZM191.705 620.568L192.183 619.689L192.2 619.699L192.217 619.709L191.705 620.568ZM640.674 525.563L639.859 524.985L640.182 524.529L640.739 524.565L640.674 525.563ZM659.912 525.805L659.963 526.804L659.957 526.804L659.912 525.805ZM688.24 520.539L688.592 521.475L688.59 521.475L688.24 520.539ZM702.934 512.515L702.324 511.722L702.327 511.72L702.934 512.515ZM715.022 498.531L715.903 499.004L715.899 499.012L715.022 498.531ZM716.144 496.444L717.062 496.84L717.045 496.88L717.025 496.917L716.144 496.444ZM717.184 494.033L716.265 493.637L716.27 493.626L717.184 494.033ZM718.812 489.084L719.786 489.31L719.778 489.342L719.769 489.374L718.812 489.084ZM720.013 479.271L719.013 479.28L719.013 479.272L719.013 479.265L720.013 479.271ZM717.246 462.231L718.196 461.919L718.199 461.928L717.246 462.231ZM704.108 436.53L704.93 435.96L704.934 435.967L704.939 435.973L704.108 436.53ZM690.592 419.247L689.837 419.903L689.489 419.502L689.625 418.99L690.592 419.247ZM696.888 277.569L695.902 277.738L695.812 277.218L696.192 276.85L696.888 277.569ZM710.04 263.706L710.8 264.356L710.797 264.36L710.04 263.706ZM726.352 239.447L727.257 239.871L727.253 239.88L726.352 239.447ZM731.514 222.945L730.525 222.797L730.527 222.787L731.514 222.945ZM655.549 384.678L656.534 384.852L656.225 386.599L654.89 385.43L655.549 384.678ZM651.244 380.904L650.594 381.664L650.593 381.664L651.244 380.904ZM604.393 344.704L603.816 345.521L602.551 344.627L603.887 343.842L604.393 344.704ZM629.527 329.223L628.981 328.385L628.984 328.383L629.527 329.223ZM658.898 309.045L658.307 308.238L659.743 307.186L659.895 308.959L658.898 309.045ZM453.643 466.195L454.596 465.893L455.378 468.361L453.14 467.059L453.643 466.195ZM414.6 444.67L414.137 445.556L414.127 445.551L414.6 444.67ZM400.027 437.134L399.578 438.027L397.467 436.965L399.699 436.189L400.027 437.134ZM402.391 436.323L402.058 435.38L402.059 435.38L402.391 436.323ZM439.826 422.554L439.469 421.619L440.459 421.242L440.779 422.252L439.826 422.554ZM388.434 398.258L388.783 399.195L388.778 399.197L388.434 398.258ZM348.331 412.4L348.653 413.347L348.286 413.472L347.931 413.317L348.331 412.4ZM326.43 402.534L326.011 403.442L326.004 403.439L326.43 402.534ZM296.023 387.774L295.578 388.669L294.799 388.281L295.075 387.456L296.023 387.774ZM338.793 260.177L337.844 259.859L337.998 259.401L338.452 259.236L338.793 260.177ZM354.286 254.717L353.957 253.772L354.326 253.644L354.684 253.799L354.286 254.717ZM381.959 267.01L381.544 267.92L381.543 267.919L381.959 267.01ZM392.06 271.679L392.48 270.772L392.881 270.957L393.014 271.377L392.06 271.679ZM427.374 383.212L428.327 382.911L428.608 383.797L427.744 384.141L427.374 383.212ZM319.109 422.066L319.535 421.161L321.835 422.246L319.412 423.018L319.109 422.066ZM280.629 433.698L280.906 434.658L279.075 435.186L279.681 433.38L280.629 433.698ZM289.301 407.83L288.353 407.512L288.715 406.432L289.739 406.931L289.301 407.83ZM317.574 421.342L317.997 420.435L318.001 420.437L317.574 421.342ZM75.3732 277.21L74.3925 277.014L74.7201 275.371L76.0108 276.44L75.3732 277.21ZM140.096 324.15L140.645 323.314L142.044 324.234L140.571 325.03L140.096 324.15ZM71.4959 365.496L72.0654 366.318L70.6813 367.277L70.5016 365.603L71.4959 365.496ZM121.206 281.057L121.821 280.268L121.822 280.269L121.206 281.057ZM85.2932 250.69L85.9745 249.958L85.9753 249.959L85.2932 250.69ZM82.7159 248.249L82.0271 248.974L81.5769 248.546L81.7607 247.953L82.7159 248.249ZM114.996 178.529L114.152 177.993L114.498 177.447L115.138 177.539L114.996 178.529ZM204.366 199.257L204.083 200.216L204.08 200.215L204.366 199.257ZM294.129 230.177L293.773 231.111L293.766 231.109L294.129 230.177ZM303.611 233.879L303.974 232.947L304.863 233.293L304.559 234.197L303.611 233.879ZM297.038 253.483L297.986 253.801L297.836 254.25L297.393 254.418L297.038 253.483ZM237.937 277.346L237.54 276.428L237.541 276.428L237.937 277.346ZM163.914 311.755L164.365 312.648L163.841 312.912L163.355 312.584L163.914 311.755ZM355.405 210.619L355.024 211.544L354.159 211.189L354.456 210.302L355.405 210.619ZM364.314 184.042L363.366 183.724L364.341 180.815L365.267 183.74L364.314 184.042ZM375.384 219.005L376.338 218.703L376.996 220.782L374.991 219.924L375.384 219.005ZM288.246 279.722L287.87 278.796L289.886 277.976L289.194 280.04L288.246 279.722ZM258.514 368.431L259.462 368.749L259.086 369.872L258.042 369.312L258.514 368.431ZM186.322 326.367L185.787 327.212L184.315 326.278L185.863 325.479L186.322 326.367ZM443.667 296.47L442.714 296.772L441.998 294.512L444.116 295.576L443.667 296.47ZM467.567 308.755L468.034 307.871L468.034 307.871L467.567 308.755ZM509.224 331.653L508.732 332.523L508.726 332.52L509.224 331.653ZM524.864 340.691L525.369 339.828L527 340.781L525.294 341.594L524.864 340.691ZM466.064 367.214L466.458 368.133L465.444 368.567L465.111 367.516L466.064 367.214ZM648.738 270.394L649.327 271.202L649.325 271.204L648.738 270.394ZM567.184 319.695L567.653 320.579L567.136 320.853L566.644 320.537L567.184 319.695ZM529.804 296.646L530.308 295.782L530.311 295.784L529.804 296.646ZM487.02 272.754L487.491 271.872L487.493 271.873L487.02 272.754ZM426.454 242.106L426.022 243.008L425.631 242.821L425.5 242.408L426.454 242.106ZM423.519 232.837L422.566 233.139L422.255 232.156L423.246 231.875L423.519 232.837ZM527.159 208.869L526.986 207.884L526.988 207.883L527.159 208.869ZM623.488 198.459L623.464 197.46L623.464 197.46L623.488 198.459ZM626.319 198.417L626.304 197.417L626.916 197.408L627.202 197.949L626.319 198.417ZM652.342 267.729L653.316 267.5L653.466 268.139L652.939 268.531L652.342 267.729ZM609.004 169.797L609.828 169.231L610.788 170.629L609.1 170.792L609.004 169.797ZM522.185 184.306L521.968 183.33L521.969 183.33L522.185 184.306ZM425.483 209.87L425.77 210.828L425.766 210.829L425.483 209.87ZM417.063 212.45L417.353 213.407L416.408 213.694L416.11 212.752L417.063 212.45ZM384.795 110.526L385.748 110.224L385.748 110.225L384.795 110.526ZM365.051 96.0277L365.056 95.0278L365.059 95.0278L365.051 96.0277ZM345.069 110.198L346.017 110.516L346.017 110.516L345.069 110.198ZM316.538 195.316L317.486 195.633L317.156 196.619L316.184 196.251L316.538 195.316ZM308.609 192.292L308.949 191.351L308.957 191.354L308.609 192.292ZM214.913 162.477L215.166 161.51L215.174 161.511L214.913 162.477ZM138.601 146.409L138.455 147.398L136.678 147.137L137.837 145.764L138.601 146.409ZM44.2253 199.337L45.1453 198.945L45.1504 198.957L44.2253 199.337ZM42.2187 185.997L43.1604 186.333L43.1492 186.364L43.1361 186.395L42.2187 185.997ZM44.4253 182.89L45.0918 183.636L45.0859 183.641L45.0798 183.646L44.4253 182.89ZM49.96 179.69L50.3393 180.616L50.3271 180.62L49.96 179.69ZM68.1893 175.97L68.1103 174.973L69.949 174.828L69.0677 176.448L68.1893 175.97ZM51.228 212.181L52.1575 212.549L51.4489 214.337L50.3925 212.73L51.228 212.181ZM39.9893 462.326L39.6046 463.249L39.6032 463.248L39.9893 462.326ZM33.1813 458.443L33.8038 457.66L33.8114 457.666L33.1813 458.443ZM30.1454 454.731L29.2538 455.184L29.2231 455.123L29.2008 455.059L30.1454 454.731ZM29.6787 449.891L30.6704 450.02L30.6692 450.028L29.6787 449.891ZM32.0653 442.302L31.1584 441.88L31.1589 441.879L32.0653 442.302ZM41.444 427.871L40.6654 427.243L41.8644 425.756L42.4034 427.589L41.444 427.871ZM55.5466 466.56L56.4629 466.16L57.2059 467.859L55.3775 467.546L55.5466 466.56ZM106.198 468.104L106.263 469.102L106.26 469.102L106.198 468.104ZM102.576 468.3L102.628 469.299L101.987 469.332L101.69 468.764L102.576 468.3ZM76.1479 394.88L75.1697 395.088L75.0418 394.486L75.5222 394.1L76.1479 394.88ZM77.8386 393.534L77.2182 392.749L77.225 392.744L77.8386 393.534ZM159.093 340.876L159.578 341.751L159.577 341.752L159.093 340.876ZM163.046 338.746L162.566 337.869L163.076 337.589L163.572 337.895L163.046 338.746ZM230.625 377.708L230.147 378.587L230.145 378.586L230.625 377.708ZM251.65 388.898L252.113 388.011L252.87 388.406L252.598 389.216L251.65 388.898ZM232.302 446.622L233.25 446.939L233.075 447.461L232.541 447.593L232.302 446.622ZM227.265 592.909L226.801 593.795L226.046 593.4L226.317 592.591L227.265 592.909ZM266.162 476.861L265.214 476.544L265.39 476.019L265.927 475.889L266.162 476.861ZM306.678 466.407L306.414 465.442L306.415 465.442L306.678 466.407ZM369.746 447.363L369.434 446.413L369.851 446.276L370.234 446.49L369.746 447.363ZM401.546 466.544L402.096 465.709L402.096 465.709L401.546 466.544ZM439.578 494.424L440.217 493.655L440.224 493.661L440.23 493.666L439.578 494.424ZM456.927 509.937L456.232 510.657L456.223 510.648L456.927 509.937ZM464.967 518.069L465.693 517.381L465.705 517.394L465.716 517.407L464.967 518.069ZM468.663 522.233L467.906 522.887L467.9 522.88L468.663 522.233ZM471.722 526.091L470.865 526.608L470.864 526.606L471.722 526.091ZM476.687 531.78L477.312 530.999L477.312 531L476.687 531.78ZM489.483 536.464L489.513 535.464L489.54 535.465L489.567 535.468L489.483 536.464ZM497.496 535.593L497.793 536.548L497.793 536.548L497.496 535.593ZM511.16 509.647L510.207 509.949L510.207 509.949L511.16 509.647ZM478.675 407.044L477.722 407.346L477.446 406.475L478.289 406.122L478.675 407.044ZM495.839 399.76L495.438 398.844L495.439 398.844L495.839 399.76ZM541.461 378.64L541.906 379.536L541.899 379.539L541.461 378.64ZM566.068 366L565.601 365.116L566.119 364.842L566.612 365.161L566.068 366ZM627.148 409.532L627.768 408.748L627.772 408.751L627.148 409.532ZM645.39 424.931L646.058 424.186L646.545 424.623L646.34 425.245L645.39 424.931ZM611.367 494.739L612.199 495.293L611.861 495.801L611.254 495.732L611.367 494.739ZM589.312 491.689L589.152 492.677L589.147 492.676L589.312 491.689ZM542.619 482.531L542.397 483.506L542.39 483.504L542.383 483.503L542.619 482.531ZM542.525 482.508L542.744 481.532L542.752 481.534L542.761 481.536L542.525 482.508ZM530.305 489.405L529.355 489.093L529.356 489.093L530.305 489.405ZM536.999 502.464L536.691 503.416L536.691 503.416L536.999 502.464ZM584.235 516.163L584.468 515.19L584.47 515.191L584.235 516.163ZM593.859 518.403L594.077 517.427L595.662 517.781L594.632 519.037L593.859 518.403ZM684.98 473.027L684.046 473.384L684.044 473.381L684.98 473.027ZM686.526 479.48L685.533 479.596L685.53 479.567L685.528 479.537L686.526 479.48ZM686.482 481.563L687.482 481.6L687.474 481.814L687.379 482.006L686.482 481.563ZM686.296 482.325L685.36 481.973L685.395 481.88L685.447 481.796L686.296 482.325ZM686.201 482.692L687.19 482.842L687.167 482.994L687.099 483.133L686.201 482.692ZM685.921 483.263L685.014 482.842L685.019 482.832L685.023 482.822L685.921 483.263ZM682.656 487.571L681.992 486.823L681.993 486.822L682.656 487.571ZM676.426 491.371L676.024 490.455L676.025 490.455L676.426 491.371ZM659.593 495.62L659.722 496.612L657.748 496.868L658.721 495.132L659.593 495.62ZM677.169 459.179L676.244 458.8L676.935 457.111L677.986 458.603L677.169 459.179ZM697.718 217.798L696.738 217.602L696.739 217.595L697.718 217.798ZM695.178 224.545L696.065 225.007L696.065 225.007L695.178 224.545ZM687.041 236.382L687.81 237.022L686.63 238.439L686.086 236.677L687.041 236.382ZM674.294 202.029L673.378 202.428L672.601 200.645L674.503 201.051L674.294 202.029ZM689.288 206.786L689.714 205.881L689.714 205.882L689.288 206.786ZM695.537 210.785L694.865 211.525L694.857 211.518L695.537 210.785ZM697.75 213.995L698.683 213.634L698.718 213.724L698.735 213.819L697.75 213.995ZM728.567 202.9C726.031 196.278 721.606 190.573 716.912 186.686L718.188 185.145C723.124 189.234 727.766 195.215 730.435 202.185L728.567 202.9ZM716.906 186.68C712.169 182.691 707.234 179.999 702.437 177.915L703.234 176.081C708.152 178.217 713.268 181.002 718.194 185.151L716.906 186.68ZM702.447 177.919C692.813 173.85 683.584 171.931 674.568 170.67L674.845 168.689C683.954 169.964 693.371 171.914 703.225 176.077L702.447 177.919ZM674.574 170.671C668.688 169.886 662.889 169.419 657.14 169.152L657.233 167.154C663.028 167.423 668.885 167.895 674.839 168.688L674.574 170.671ZM656.321 168.654C598.331 68.5573 489.409 0.999984 364.878 0.999984V-1.00002C490.148 -1.00002 599.717 66.9597 658.052 167.652L656.321 168.654ZM364.878 0.999984C251.42 0.999984 150.936 57.0831 90.1005 142.748L88.4699 141.59C149.666 55.4179 250.747 -1.00002 364.878 -1.00002V0.999984ZM89.2791 143.169C81.423 143.121 73.4459 143.448 65.2687 144.398L65.0378 142.412C73.3113 141.45 81.3714 141.121 89.2913 141.169L89.2791 143.169ZM65.2804 144.397C56.2782 145.55 47.0347 147.282 37.3192 151.699L36.4915 149.879C46.4719 145.341 55.943 143.577 65.0262 142.413L65.2804 144.397ZM37.3241 151.697C32.5202 153.913 27.5365 156.942 23.0753 161.421L21.6582 160.01C26.3302 155.319 31.5305 152.167 36.4865 149.881L37.3241 151.697ZM23.0625 161.434C20.845 163.582 18.8422 166.253 17.1157 169.09L15.4071 168.05C17.1952 165.112 19.2991 162.295 21.671 159.997L23.0625 161.434ZM17.1357 169.056C15.5094 171.985 14.1255 175.067 13.3797 178.212L11.4337 177.75C12.2372 174.362 13.712 171.102 15.3871 168.085L17.1357 169.056ZM13.3729 178.239C11.6719 184.612 11.9757 190.806 12.9767 196.212L11.0101 196.576C9.97379 190.98 9.64019 184.469 11.4405 177.723L13.3729 178.239ZM12.9758 196.207C14.0096 201.647 15.7804 206.418 17.8128 210.806L15.998 211.646C13.9184 207.157 12.0838 202.226 11.011 196.581L12.9758 196.207ZM17.8105 210.801C21.925 219.561 27.0473 226.863 32.45 233.702L30.8807 234.942C25.4301 228.042 20.2058 220.605 16.0002 211.651L17.8105 210.801ZM32.4451 233.696C35.2439 237.182 38.1288 240.526 41.0778 243.762L39.5996 245.109C36.6259 241.846 33.7135 238.47 30.8856 234.948L32.4451 233.696ZM41.3013 244.706C33.3084 273.141 29.0187 303.091 29.0187 334.022H27.0187C27.0187 302.905 31.3343 272.773 39.376 244.165L41.3013 244.706ZM29.0187 334.022C29.0187 354.756 30.9727 375.182 34.6885 395.155L32.7222 395.521C28.9846 375.43 27.0187 354.882 27.0187 334.022H29.0187ZM34.3875 396.069C30.5464 399.652 26.7842 403.383 23.1468 407.354L21.6719 406.004C25.3518 401.986 29.1523 398.218 33.0232 394.606L34.3875 396.069ZM23.15 407.351C17.1339 413.982 11.4084 421.229 6.79287 430.244L5.01263 429.333C9.73841 420.102 15.5889 412.709 21.6687 406.007L23.15 407.351ZM6.79717 430.235C4.53389 434.762 2.57374 439.799 1.56953 445.62L-0.401347 445.28C0.645112 439.214 2.68495 433.988 5.00832 429.341L6.79717 430.235ZM1.56825 445.627C0.537764 451.346 0.837325 458.164 3.05727 464.506L1.16958 465.167C-1.17313 458.474 -1.48691 451.305 -0.400061 445.272L1.56825 445.627ZM3.05372 464.496C5.3399 470.812 9.44022 476.344 13.8982 480.2L12.5899 481.713C7.89592 477.653 3.5856 471.842 1.17312 465.177L3.05372 464.496ZM13.9047 480.205C18.3997 484.161 23.1551 486.917 27.8219 489.079L26.9809 490.894C22.1943 488.676 17.2617 485.823 12.5835 481.707L13.9047 480.205ZM27.814 489.076C37.191 493.323 46.3165 495.513 55.2677 497.036L54.9322 499.007C45.8888 497.469 36.5797 495.242 26.9887 490.898L27.814 489.076ZM55.2627 497.035C61.1012 497.997 66.8733 498.656 72.6076 499.122L72.4455 501.115C66.6679 500.646 60.8401 499.981 54.9373 499.008L55.2627 497.035ZM73.3915 499.617C80.1804 511.314 87.7219 522.666 96.0042 533.62L94.4089 534.826C86.0779 523.808 78.4914 512.388 71.6617 500.621L73.3915 499.617ZM96.0042 533.62C102.586 542.326 115.047 544.096 123.834 537.563L125.027 539.168C115.363 546.354 101.656 544.412 94.4088 534.826L96.0042 533.62ZM123.834 537.563C132.615 531.034 134.39 518.692 127.809 509.991L129.404 508.785C136.658 518.375 134.696 531.979 125.027 539.168L123.834 537.563ZM127.809 509.991C125.503 506.942 123.272 503.852 121.096 500.737L122.736 499.591C124.9 502.69 127.116 505.759 129.404 508.785L127.809 509.991ZM121.856 499.166C151.199 497.408 179.973 493.287 208.474 488.129L208.83 490.097C180.283 495.263 151.425 499.398 121.976 501.162L121.856 499.166ZM208.473 488.129C211.82 487.524 215.156 486.886 218.497 486.243L218.875 488.207C215.534 488.85 212.188 489.49 208.83 490.097L208.473 488.129ZM219.634 487.543L183.278 596L181.382 595.365L217.738 486.908L219.634 487.543ZM183.259 596.054L183.254 596.067L181.396 595.325L181.402 595.311L183.259 596.054ZM183.272 596.016L183.152 596.371L181.258 595.73L181.378 595.375L183.272 596.016ZM183.154 596.365C183.137 596.418 183.121 596.478 183.097 596.569C183.075 596.652 183.045 596.769 183.006 596.889L181.102 596.278C181.121 596.22 181.137 596.159 181.162 596.064C181.184 595.978 181.215 595.86 181.256 595.736L183.154 596.365ZM183.011 596.876C182.874 597.323 182.749 597.741 182.652 598.157L180.704 597.704C180.818 597.214 180.962 596.736 181.098 596.292L183.011 596.876ZM182.651 598.161C182.598 598.385 182.571 598.576 182.514 598.876L180.549 598.505C180.589 598.295 180.638 597.983 180.705 597.7L182.651 598.161ZM182.513 598.883C182.432 599.297 182.359 599.67 182.312 600.041L180.328 599.788C180.385 599.34 180.472 598.9 180.55 598.498L182.513 598.883ZM182.311 600.049C182.273 600.327 182.256 600.599 182.228 600.936L180.235 600.776C180.258 600.483 180.281 600.129 180.329 599.78L182.311 600.049ZM182.228 600.936C182.198 601.309 182.167 601.613 182.158 601.925L180.159 601.864C180.17 601.485 180.209 601.096 180.235 600.775L182.228 600.936ZM182.158 601.928C182.147 602.256 182.154 602.588 182.161 602.955L180.161 602.992C180.155 602.641 180.146 602.253 180.159 601.861L182.158 601.928ZM182.161 602.955C182.166 603.271 182.169 603.541 182.187 603.809L180.191 603.943C180.169 603.613 180.166 603.278 180.161 602.991L182.161 602.955ZM182.186 603.801C182.213 604.165 182.25 604.527 182.295 604.888L180.31 605.136C180.261 604.742 180.221 604.347 180.192 603.95L182.186 603.801ZM182.295 604.89C182.331 605.184 182.36 605.444 182.4 605.709L180.423 606.008C180.378 605.707 180.343 605.402 180.31 605.134L182.295 604.89ZM182.4 605.703C182.453 606.042 182.526 606.377 182.607 606.749L180.653 607.176C180.575 606.815 180.488 606.421 180.424 606.014L182.4 605.703ZM182.607 606.75C182.673 607.049 182.726 607.305 182.795 607.56L180.865 608.083C180.78 607.767 180.713 607.452 180.653 607.175L182.607 606.75ZM182.797 607.564C182.88 607.879 182.979 608.19 183.086 608.526L181.182 609.138C181.074 608.801 180.962 608.446 180.864 608.078L182.797 607.564ZM183.087 608.529C183.187 608.844 183.275 609.123 183.377 609.394L181.505 610.099C181.38 609.767 181.276 609.433 181.181 609.134L183.087 608.529ZM183.377 609.395C183.48 609.669 183.595 609.936 183.724 610.239L181.883 611.022C181.761 610.735 181.626 610.421 181.505 610.098L183.377 609.395ZM183.723 610.237C183.864 610.567 183.995 610.871 184.139 611.166L182.341 612.042C182.172 611.696 182.023 611.347 181.885 611.024L183.723 610.237ZM184.134 611.157C184.257 611.402 184.385 611.644 184.519 611.883L182.774 612.86C182.625 612.594 182.482 612.324 182.345 612.051L184.134 611.157ZM184.523 611.891C184.711 612.234 184.878 612.543 185.061 612.84L183.359 613.89C183.143 613.539 182.947 613.176 182.769 612.852L184.523 611.891ZM185.064 612.844C185.195 613.058 185.338 613.266 185.502 613.508L183.847 614.63C183.696 614.409 183.519 614.152 183.357 613.887L185.064 612.844ZM185.505 613.513C185.719 613.832 185.918 614.126 186.131 614.408L184.537 615.616C184.284 615.282 184.056 614.943 183.843 614.625L185.505 613.513ZM186.13 614.406C186.296 614.625 186.474 614.835 186.677 615.08L185.138 616.357C184.952 616.132 184.738 615.879 184.539 615.617L186.13 614.406ZM186.675 615.077C186.918 615.368 187.117 615.614 187.341 615.853L185.88 617.219C185.607 616.927 185.358 616.621 185.14 616.36L186.675 615.077ZM187.345 615.858C187.564 616.094 187.797 616.319 188.059 616.576L186.66 618.005C186.416 617.766 186.137 617.497 185.875 617.214L187.345 615.858ZM188.06 616.577C188.296 616.809 188.488 617.003 188.696 617.19L187.362 618.679C187.109 618.453 186.866 618.207 186.659 618.004L188.06 616.577ZM188.697 617.191C188.986 617.45 189.298 617.698 189.636 617.963L188.403 619.538C188.064 619.272 187.704 618.987 187.361 618.678L188.697 617.191ZM189.638 617.964C189.88 618.155 190.005 618.267 190.191 618.402L189.013 620.019C188.797 619.861 188.546 619.65 188.402 619.537L189.638 617.964ZM190.196 618.406C190.55 618.667 190.93 618.911 191.339 619.166L190.282 620.863C189.864 620.603 189.428 620.325 189.009 620.015L190.196 618.406ZM191.344 619.169C191.442 619.231 191.535 619.296 191.598 619.34C191.669 619.39 191.714 619.421 191.756 619.446L190.723 621.159C190.617 621.095 190.522 621.028 190.452 620.98C190.375 620.925 190.326 620.891 190.277 620.86L191.344 619.169ZM191.734 619.433C191.798 619.47 191.862 619.506 191.928 619.543L190.941 621.283C190.875 621.245 190.809 621.208 190.745 621.171L191.734 619.433ZM191.949 619.556C192.025 619.602 192.103 619.646 192.183 619.689L191.227 621.446C191.123 621.39 191.021 621.331 190.92 621.271L191.949 619.556ZM192.217 619.709C244.215 650.669 303.903 667.04 364.869 667.04V669.04C303.546 669.04 243.504 652.573 191.193 621.427L192.217 619.709ZM364.869 667.04C478.461 667.04 579.045 610.824 639.859 524.985L641.49 526.141C580.317 612.488 479.135 669.04 364.869 669.04V667.04ZM640.739 524.565C646.986 524.97 653.343 525.103 659.866 524.806L659.957 526.804C653.347 527.105 646.915 526.969 640.61 526.561L640.739 524.565ZM659.861 524.807C668.831 524.349 678.157 523.239 687.89 519.602L688.59 521.475C678.584 525.215 669.027 526.342 659.963 526.804L659.861 524.807ZM687.888 519.603C692.727 517.784 697.68 515.299 702.324 511.722L703.545 513.307C698.709 517.031 693.571 519.603 688.592 521.475L687.888 519.603ZM702.327 511.72C706.954 508.181 711.187 503.434 714.146 498.049L715.899 499.012C712.797 504.657 708.376 509.612 703.542 513.309L702.327 511.72ZM714.141 498.057L715.263 495.971L717.025 496.917L715.903 499.004L714.141 498.057ZM715.225 496.048L716.265 493.637L718.102 494.43L717.062 496.84L715.225 496.048ZM716.27 493.626C716.954 492.093 717.329 490.53 717.854 488.794L719.769 489.374C719.286 490.969 718.848 492.755 718.097 494.441L716.27 493.626ZM717.837 488.859C718.592 485.6 719.041 482.314 719.013 479.28L721.013 479.261C721.043 482.495 720.565 485.944 719.786 489.31L717.837 488.859ZM719.013 479.265C719.052 473.05 717.874 467.507 716.293 462.534L718.199 461.928C719.824 467.04 721.054 472.796 721.013 479.277L719.013 479.265ZM716.296 462.543C713.03 452.605 708.3 444.592 703.277 437.086L704.939 435.973C710.006 443.545 714.849 451.732 718.196 461.919L716.296 462.543ZM703.285 437.099C699.042 430.971 694.524 425.297 689.837 419.903L691.347 418.591C696.072 424.029 700.637 429.761 704.93 435.96L703.285 437.099ZM689.625 418.99C696.853 391.852 700.722 363.375 700.722 334.011H702.722C702.722 363.551 698.829 392.202 691.558 419.504L689.625 418.99ZM700.722 334.011C700.722 314.833 699.055 296.039 695.902 277.738L697.873 277.399C701.045 295.81 702.722 314.717 702.722 334.011H700.722ZM696.192 276.85C700.678 272.506 705.06 267.942 709.283 263.052L710.797 264.36C706.529 269.302 702.105 273.909 697.583 278.287L696.192 276.85ZM709.279 263.056C715.225 256.099 720.896 248.499 725.45 239.015L727.253 239.88C722.596 249.579 716.806 257.327 710.8 264.356L709.279 263.056ZM725.446 239.023C727.675 234.26 729.604 228.948 730.525 222.797L732.503 223.093C731.545 229.488 729.543 234.989 727.257 239.871L725.446 239.023ZM730.527 222.787C731.492 216.76 731.041 209.537 728.564 202.893L730.438 202.194C733.046 209.188 733.517 216.764 732.502 223.103L730.527 222.787ZM660.985 334.026C660.985 351.356 659.451 368.338 656.534 384.852L654.564 384.504C657.461 368.103 658.985 351.237 658.985 334.026H660.985ZM654.89 385.43C653.441 384.162 652.036 382.898 650.594 381.664L651.894 380.144C653.345 381.386 654.788 382.682 656.208 383.925L654.89 385.43ZM650.593 381.664C635.529 368.75 619.843 356.842 603.816 345.521L604.97 343.888C621.034 355.234 636.772 367.181 651.895 380.145L650.593 381.664ZM603.887 343.842C612.345 338.872 620.726 333.753 628.981 328.385L630.072 330.061C621.785 335.45 613.377 340.585 604.9 345.567L603.887 343.842ZM628.984 328.383C638.904 321.97 648.692 315.284 658.307 308.238L659.489 309.851C649.839 316.923 640.018 323.631 630.069 330.063L628.984 328.383ZM659.895 308.959C660.604 317.225 660.985 325.582 660.985 334.026H658.985C658.985 325.643 658.606 317.342 657.902 309.13L659.895 308.959ZM453.14 467.059C440.227 459.546 427.231 452.404 414.137 445.556L415.064 443.783C428.183 450.644 441.205 457.801 454.146 465.33L453.14 467.059ZM414.127 445.551C409.312 442.965 404.454 440.481 399.578 438.027L400.477 436.24C405.36 438.698 410.235 441.19 415.073 443.789L414.127 445.551ZM399.699 436.189C400.521 435.903 401.263 435.661 402.058 435.38L402.724 437.266C401.949 437.54 401.107 437.817 400.355 438.078L399.699 436.189ZM402.059 435.38C414.586 430.967 427.049 426.357 439.469 421.619L440.182 423.488C427.749 428.23 415.27 432.847 402.723 437.266L402.059 435.38ZM440.779 422.252L454.596 465.893L452.69 466.497L438.872 422.855L440.779 422.252ZM388.778 399.197C375.467 404.076 362.082 408.782 348.653 413.347L348.009 411.454C361.425 406.893 374.795 402.192 388.09 397.319L388.778 399.197ZM347.931 413.317C340.593 410.109 333.087 406.703 326.011 403.442L326.849 401.626C333.917 404.884 341.411 408.284 348.732 411.484L347.931 413.317ZM326.004 403.439C315.805 398.64 305.673 393.692 295.578 388.669L296.469 386.878C306.555 391.898 316.674 396.838 326.856 401.629L326.004 403.439ZM295.075 387.456L337.844 259.859L339.741 260.494L296.972 388.092L295.075 387.456ZM338.452 259.236C343.607 257.371 348.787 255.573 353.957 253.772L354.615 255.661C349.441 257.463 344.274 259.257 339.133 261.117L338.452 259.236ZM354.684 253.799C363.946 257.816 373.187 261.896 382.375 266.101L381.543 267.919C372.371 263.722 363.143 259.647 353.888 255.634L354.684 253.799ZM382.374 266.1C385.75 267.64 389.119 269.219 392.48 270.772L391.641 272.587C388.266 271.028 384.915 269.457 381.544 267.92L382.374 266.1ZM393.014 271.377L428.327 382.911L426.42 383.514L391.107 271.981L393.014 271.377ZM427.744 384.141C414.814 389.299 401.835 394.336 388.783 399.195L388.085 397.321C401.12 392.468 414.085 387.437 427.003 382.284L427.744 384.141ZM319.412 423.018C306.628 427.092 293.783 430.948 280.906 434.658L280.352 432.737C293.215 429.031 306.042 425.18 318.805 421.113L319.412 423.018ZM279.681 433.38L288.353 407.512L290.249 408.147L281.577 434.015L279.681 433.38ZM289.739 406.931C299.12 411.502 308.525 416.02 317.996 420.435L317.151 422.248C307.666 417.826 298.25 413.303 288.863 408.729L289.739 406.931ZM318.001 420.437L319.535 421.161L318.682 422.97L317.147 422.246L318.001 420.437ZM68.7693 334.026C68.7693 314.523 70.7146 295.464 74.3925 277.014L76.3539 277.405C72.7012 295.729 70.7693 314.657 70.7693 334.026H68.7693ZM76.0108 276.44C96.6903 293.553 118.496 308.759 140.645 323.314L139.547 324.986C117.37 310.413 95.4961 295.16 74.7357 277.98L76.0108 276.44ZM140.571 325.03C117.207 337.65 94.1696 351.004 72.0654 366.318L70.9264 364.674C93.1155 349.301 116.224 335.908 139.62 323.27L140.571 325.03ZM70.5016 365.603C69.3835 355.184 68.7693 344.655 68.7693 334.026H70.7693C70.7693 344.578 71.379 355.036 72.4902 365.39L70.5016 365.603ZM159.112 309.772C145.935 300.867 133.05 291.578 120.591 281.845L121.822 280.269C134.24 289.97 147.088 299.233 160.232 308.115L159.112 309.772ZM120.592 281.846C108.125 272.139 96.005 262.049 84.6111 251.421L85.9753 249.959C97.3147 260.536 109.387 270.587 121.821 280.268L120.592 281.846ZM84.6119 251.422C83.7402 250.611 82.879 249.783 82.0271 248.974L83.4047 247.524C84.2675 248.344 85.1129 249.156 85.9745 249.958L84.6119 251.422ZM81.7607 247.953C89.4701 223.068 100.436 199.59 114.152 177.993L115.84 179.065C102.217 200.516 91.327 223.832 83.6711 248.545L81.7607 247.953ZM115.138 177.539C145.046 181.845 175.079 189.452 204.653 198.299L204.08 200.215C174.555 191.382 144.625 183.805 114.853 179.519L115.138 177.539ZM204.65 198.298C234.946 207.248 264.909 217.743 294.491 229.245L293.766 231.109C264.226 219.624 234.317 209.148 204.083 200.216L204.65 198.298ZM294.485 229.242C297.656 230.45 300.827 231.723 303.974 232.947L303.249 234.811C300.07 233.575 296.94 232.317 293.773 231.111L294.485 229.242ZM304.559 234.197L297.986 253.801L296.09 253.165L302.663 233.562L304.559 234.197ZM297.393 254.418C277.551 261.961 257.841 269.86 238.332 278.264L237.541 276.428C257.081 268.01 276.818 260.099 296.683 252.549L297.393 254.418ZM238.334 278.264C213.4 289.046 188.672 300.376 164.365 312.648L163.464 310.863C187.815 298.569 212.581 287.222 237.54 276.428L238.334 278.264ZM163.355 312.584C162.028 311.689 160.465 310.692 159.109 309.769L160.234 308.115C161.684 309.102 162.987 309.923 164.474 310.926L163.355 312.584ZM354.456 210.302L363.366 183.724L365.262 184.36L356.353 210.937L354.456 210.302ZM365.267 183.74L376.338 218.703L374.431 219.307L363.36 184.344L365.267 183.74ZM374.991 219.924C368.355 217.086 361.699 214.289 355.024 211.544L355.785 209.695C362.47 212.443 369.134 215.244 375.778 218.085L374.991 219.924ZM289.194 280.04L259.462 368.749L257.566 368.113L287.298 279.404L289.194 280.04ZM258.042 369.312C233.433 356.115 209.292 342.114 185.787 327.212L186.858 325.523C210.318 340.396 234.417 354.374 258.987 367.55L258.042 369.312ZM185.863 325.479C219.027 308.351 253.156 292.905 287.87 278.796L288.623 280.648C253.957 294.739 219.884 310.16 186.781 327.256L185.863 325.479ZM444.116 295.576C452.127 299.602 460.108 303.686 468.034 307.871L467.1 309.64C459.189 305.462 451.22 301.385 443.218 297.363L444.116 295.576ZM468.034 307.871C482.066 315.283 495.986 322.893 509.722 330.785L508.726 332.52C495.014 324.641 481.115 317.043 467.1 309.639L468.034 307.871ZM509.717 330.782C514.968 333.754 520.173 336.792 525.369 339.828L524.36 341.555C519.163 338.518 513.969 335.487 508.732 332.523L509.717 330.782ZM525.294 341.594C505.902 350.835 486.269 359.66 466.458 368.133L465.671 366.294C485.46 357.831 505.069 349.017 524.434 339.788L525.294 341.594ZM465.111 367.516L442.714 296.772L444.62 296.168L467.018 366.912L465.111 367.516ZM649.325 271.204C623.925 289.622 595.981 305.546 567.653 320.579L566.715 318.812C595.016 303.794 622.864 287.921 648.151 269.584L649.325 271.204ZM566.644 320.537C554.321 312.626 541.886 304.92 529.297 297.508L530.311 295.784C542.927 303.212 555.383 310.932 567.724 318.854L566.644 320.537ZM529.3 297.51C515.192 289.277 500.923 281.352 486.547 273.635L487.493 271.873C501.885 279.599 516.176 287.535 530.308 295.782L529.3 297.51ZM486.55 273.636C466.588 262.993 446.419 252.759 426.022 243.008L426.885 241.204C447.31 250.968 467.506 261.216 487.491 271.872L486.55 273.636ZM425.5 242.408L422.566 233.139L424.472 232.535L427.407 241.804L425.5 242.408ZM423.246 231.875C457.471 222.177 492.091 214.02 526.986 207.884L527.332 209.854C492.512 215.976 457.959 224.118 423.792 233.799L423.246 231.875ZM526.988 207.883C559.106 202.325 591.539 198.229 623.464 197.46L623.512 199.459C591.72 200.226 559.392 204.306 527.329 209.854L526.988 207.883ZM623.464 197.46C624.413 197.437 625.369 197.43 626.304 197.417L626.333 199.417C625.378 199.43 624.448 199.437 623.512 199.459L623.464 197.46ZM627.202 197.949C638.713 219.681 647.573 243 653.316 267.5L651.369 267.957C645.666 243.628 636.868 220.47 625.435 198.885L627.202 197.949ZM652.939 268.531C651.743 269.421 650.543 270.317 649.327 271.202L648.15 269.586C649.355 268.708 650.545 267.82 651.745 266.926L652.939 268.531ZM364.878 40.4012C466.6 40.4012 556.5 91.5341 609.828 169.231L608.179 170.363C555.209 93.188 465.915 42.4012 364.878 42.4012V40.4012ZM609.1 170.792C579.612 173.644 550.848 178.965 522.402 185.282L521.969 183.33C550.458 177.002 579.308 171.664 608.908 168.802L609.1 170.792ZM522.403 185.282C489.775 192.558 457.624 201.282 425.77 210.828L425.196 208.912C457.083 199.357 489.281 190.619 521.968 183.33L522.403 185.282ZM425.766 210.829C422.948 211.659 420.192 212.547 417.353 213.407L416.773 211.493C419.555 210.65 422.386 209.74 425.201 208.911L425.766 210.829ZM416.11 212.752L383.842 110.828L385.748 110.225L418.016 212.148L416.11 212.752ZM383.842 110.828C381.259 102.676 373.672 97.0976 365.043 97.0277L365.059 95.0278C374.545 95.1046 382.902 101.238 385.748 110.224L383.842 110.828ZM365.046 97.0277C356.429 96.982 348.733 102.412 346.017 110.516L344.12 109.881C347.116 100.942 355.593 94.9775 365.056 95.0278L365.046 97.0277ZM346.017 110.516L317.486 195.633L315.59 194.998L344.12 109.881L346.017 110.516ZM316.184 196.251C313.514 195.24 310.911 194.213 308.26 193.229L308.957 191.354C311.605 192.338 314.266 193.386 316.892 194.38L316.184 196.251ZM308.268 193.232C277.538 182.103 246.383 172.011 214.652 163.442L215.174 161.511C246.968 170.097 278.176 180.208 308.949 191.351L308.268 193.232ZM214.659 163.444C189.676 156.899 164.386 151.217 138.455 147.398L138.747 145.42C164.773 149.252 190.139 154.953 215.166 161.51L214.659 163.444ZM137.837 145.764C192.193 81.4054 273.792 40.4012 364.878 40.4012V42.4012C274.404 42.4012 193.356 83.1275 139.365 147.054L137.837 145.764ZM43.3055 199.729C42.047 196.778 41.2749 193.92 40.9446 191.489C40.6205 189.104 40.7012 186.982 41.3012 185.599L43.1361 186.395C42.7588 187.265 42.6161 188.936 42.9264 191.22C43.2304 193.457 43.9503 196.143 45.1452 198.945L43.3055 199.729ZM41.2769 185.66C41.7715 184.276 42.4313 183.294 43.7709 182.134L45.0798 183.646C43.9793 184.599 43.5298 185.299 43.1604 186.333L41.2769 185.66ZM43.7588 182.145C45.0366 181.002 47.0294 179.772 49.5929 178.76L50.3271 180.62C47.9305 181.566 46.1554 182.685 45.0918 183.636L43.7588 182.145ZM49.5807 178.765C54.5652 176.722 61.2491 175.517 68.1103 174.973L68.2682 176.967C61.4974 177.504 55.0481 178.685 50.3393 180.615L49.5807 178.765ZM69.0677 176.448C62.7373 188.088 57.0798 200.137 52.1575 212.549L50.2984 211.812C55.2508 199.324 60.9425 187.202 67.3108 175.492L69.0677 176.448ZM50.3925 212.73C47.5349 208.386 45.0498 203.979 43.3002 199.717L45.1504 198.957C46.8355 203.062 49.2491 207.352 52.0635 211.631L50.3925 212.73ZM39.6032 463.248C36.7467 462.052 34.2968 460.636 32.5513 459.219L33.8114 457.666C35.3725 458.933 37.6453 460.26 40.3755 461.403L39.6032 463.248ZM32.5589 459.226C30.7114 457.756 29.8893 456.435 29.2538 455.184L31.0369 454.278C31.58 455.347 32.238 456.415 33.8038 457.66L32.5589 459.226ZM29.2008 455.059C28.7398 453.733 28.3556 452.15 28.6882 449.753L30.6692 450.028C30.3911 452.032 30.703 453.289 31.0899 454.403L29.2008 455.059ZM28.6871 449.762C28.9836 447.484 29.8373 444.724 31.1584 441.88L32.9723 442.723C31.712 445.436 30.9338 447.996 30.6703 450.02L28.6871 449.762ZM31.1589 441.879C33.397 437.076 36.7749 432.07 40.6654 427.243L42.2226 428.498C38.3905 433.253 35.1176 438.119 32.9718 442.724L31.1589 441.879ZM42.4034 427.589C46.2659 440.725 50.97 453.593 56.4629 466.16L54.6303 466.961C49.1046 454.319 44.3714 441.372 40.4846 428.153L42.4034 427.589ZM55.3775 467.546C49.6431 466.562 44.1872 465.159 39.6046 463.249L40.3741 461.403C44.7728 463.236 50.0715 464.606 55.7157 465.575L55.3775 467.546ZM201.716 454.784C170.047 461.609 137.998 467.04 106.263 469.102L106.134 467.106C137.734 465.053 169.678 459.642 201.294 452.829L201.716 454.784ZM106.26 469.102C105.046 469.177 103.831 469.236 102.628 469.299L102.524 467.302C103.736 467.239 104.935 467.18 106.137 467.106L106.26 469.102ZM101.69 468.764C89.5008 445.46 80.6152 420.739 75.1697 395.088L77.1261 394.673C82.5339 420.146 91.3576 444.695 103.462 467.837L101.69 468.764ZM75.5222 394.1C76.0857 393.648 76.6511 393.198 77.2182 392.749L78.4589 394.318C77.8954 394.764 77.3336 395.211 76.7737 395.66L75.5222 394.1ZM77.225 392.744C102.457 373.137 130.114 355.756 158.609 340.001L159.577 341.752C131.144 357.472 103.58 374.797 78.4522 394.323L77.225 392.744ZM158.608 340.002C159.885 339.293 161.316 338.554 162.566 337.869L163.527 339.623C162.15 340.377 160.914 341.009 159.578 341.751L158.608 340.002ZM163.572 337.895C185.711 351.564 208.322 364.381 231.104 376.831L230.145 378.586C207.346 366.127 184.702 353.291 162.521 339.597L163.572 337.895ZM231.103 376.83C238.076 380.621 245.081 384.343 252.113 388.011L251.188 389.784C244.147 386.111 237.131 382.385 230.147 378.587L231.103 376.83ZM252.598 389.216L233.25 446.939L231.354 446.304L250.702 388.58L252.598 389.216ZM232.541 447.593C222.293 450.113 212.025 452.548 201.717 454.785L201.293 452.831C211.577 450.599 221.826 448.168 232.063 445.65L232.541 447.593ZM364.878 627.652C316.557 627.652 269.171 615.966 226.801 593.795L227.729 592.023C269.812 614.044 316.879 625.652 364.878 625.652V627.652ZM226.317 592.591L265.214 476.544L267.11 477.179L228.213 593.227L226.317 592.591ZM265.927 475.889C279.484 472.612 292.977 469.113 306.414 465.442L306.942 467.371C293.488 471.047 279.976 474.551 266.397 477.833L265.927 475.889ZM306.415 465.442C327.602 459.667 348.588 453.243 369.434 446.413L370.057 448.313C349.186 455.152 328.167 461.586 306.941 467.372L306.415 465.442ZM370.234 446.49C381.075 452.552 391.754 458.894 402.096 465.709L400.995 467.379C390.705 460.597 380.07 454.281 369.258 448.236L370.234 446.49ZM402.096 465.709C415.306 474.416 428.162 483.625 440.217 493.655L438.938 495.193C426.956 485.223 414.164 476.059 400.995 467.379L402.096 465.709ZM440.23 493.666C446.135 498.748 452.13 503.781 457.631 509.227L456.223 510.648C450.785 505.264 444.86 500.289 438.925 495.182L440.23 493.666ZM457.622 509.218C460.407 511.91 463.084 514.631 465.693 517.381L464.241 518.758C461.65 516.025 458.993 513.325 456.232 510.656L457.622 509.218ZM465.716 517.407C466.921 518.769 468.253 520.202 469.426 521.587L467.9 522.88C466.74 521.51 465.475 520.153 464.218 518.732L465.716 517.407ZM469.42 521.58C470.526 522.862 471.963 524.55 472.579 525.576L470.864 526.606C470.358 525.762 469.061 524.226 467.906 522.887L469.42 521.58ZM472.578 525.574C473.782 527.569 475.388 529.459 477.312 530.999L476.062 532.561C473.943 530.864 472.184 528.791 470.865 526.608L472.578 525.574ZM477.312 531C480.915 533.886 485.208 535.333 489.513 535.464L489.452 537.464C484.739 537.32 480.022 535.733 476.062 532.56L477.312 531ZM489.567 535.468C492.071 535.68 494.655 535.43 497.199 534.638L497.793 536.548C494.994 537.418 492.151 537.694 489.398 537.46L489.567 535.468ZM497.199 534.639C507.676 531.377 513.491 520.318 510.207 509.949L512.113 509.345C515.736 520.783 509.316 532.961 497.793 536.548L497.199 534.639ZM510.207 509.949L477.722 407.346L479.628 406.742L512.114 509.345L510.207 509.949ZM478.289 406.122C484.024 403.721 489.75 401.331 495.438 398.844L496.239 400.677C490.533 403.171 484.792 405.568 479.061 407.967L478.289 406.122ZM495.439 398.844C510.776 392.161 525.951 385.083 541.023 377.741L541.899 379.539C526.807 386.891 511.606 393.981 496.238 400.677L495.439 398.844ZM541.016 377.745C549.259 373.648 557.447 369.425 565.601 365.116L566.535 366.885C558.369 371.2 550.167 375.43 541.906 379.536L541.016 377.745ZM566.612 365.161C587.767 378.861 608.3 393.353 627.768 408.748L626.528 410.317C607.116 394.967 586.636 380.511 565.524 366.84L566.612 365.161ZM627.772 408.751C634.034 413.759 640.155 418.9 646.058 424.186L644.723 425.676C638.852 420.418 632.76 415.301 626.523 410.313L627.772 408.751ZM646.34 425.245C638.085 450.234 626.533 473.748 612.199 495.293L610.534 494.185C624.771 472.786 636.243 449.433 644.441 424.617L646.34 425.245ZM611.254 495.732C603.907 494.901 596.526 493.868 589.152 492.677L589.471 490.702C596.818 491.889 604.167 492.918 611.479 493.745L611.254 495.732ZM589.147 492.676C573.596 490.081 557.964 487.043 542.397 483.506L542.84 481.556C558.367 485.083 573.961 488.114 589.477 490.703L589.147 492.676ZM542.383 483.503L542.289 483.48L542.761 481.536L542.855 481.559L542.383 483.503ZM542.307 483.484C537.599 482.431 532.778 485.09 531.255 489.718L529.356 489.093C531.206 483.467 537.052 480.26 542.744 481.532L542.307 483.484ZM531.255 489.718C529.644 494.624 532.345 499.908 537.306 501.513L536.691 503.416C530.687 501.474 527.394 495.064 529.355 489.093L531.255 489.718ZM537.306 501.513C552.822 506.528 568.451 511.354 584.468 515.19L584.002 517.135C567.907 513.281 552.218 508.435 536.691 503.416L537.306 501.513ZM584.47 515.191C587.66 515.963 590.862 516.708 594.077 517.427L593.64 519.379C590.414 518.657 587.201 517.909 583.999 517.135L584.47 515.191ZM594.632 519.037C540.292 585.262 457.489 627.652 364.878 627.652V625.652C456.866 625.652 539.111 583.549 593.086 517.768L594.632 519.037ZM685.914 472.67C686.907 475.267 687.423 477.639 687.525 479.423L685.528 479.537C685.44 478.004 684.983 475.837 684.046 473.384L685.914 472.67ZM687.52 479.364C687.632 480.329 687.498 481.17 687.482 481.6L685.483 481.525C685.512 480.75 685.623 480.367 685.533 479.596L687.52 479.364ZM687.379 482.006C687.404 481.956 687.408 481.925 687.405 481.94C687.4 481.962 687.397 481.987 687.388 482.07C687.38 482.134 687.367 482.252 687.338 482.376C687.308 482.504 687.255 482.678 687.144 482.855L685.447 481.796C685.402 481.868 685.39 481.924 685.389 481.926C685.389 481.928 685.39 481.923 685.392 481.907C685.395 481.891 685.398 481.87 685.401 481.837C685.407 481.785 685.419 481.673 685.441 481.563C685.463 481.446 685.503 481.287 685.586 481.12L687.379 482.006ZM687.231 482.678C687.214 482.725 687.199 482.779 687.19 482.842L685.212 482.542C685.242 482.348 685.291 482.157 685.36 481.973L687.231 482.678ZM687.099 483.133L686.819 483.703L685.023 482.822L685.303 482.252L687.099 483.133ZM686.828 483.684C686.046 485.369 684.974 486.853 683.319 488.319L681.993 486.822C683.447 485.534 684.351 484.271 685.014 482.842L686.828 483.684ZM683.32 488.319C681.682 489.772 679.459 491.133 676.828 492.287L676.025 490.455C678.519 489.361 680.55 488.103 681.992 486.823L683.32 488.319ZM676.829 492.286C672.074 494.374 666.049 495.789 659.722 496.612L659.464 494.628C665.686 493.819 671.507 492.439 676.024 490.455L676.829 492.286ZM658.721 495.132C665.269 483.434 671.128 471.304 676.244 458.8L678.095 459.558C672.948 472.137 667.053 484.34 660.466 496.109L658.721 495.132ZM677.986 458.603C681.351 463.373 684.24 468.245 685.915 472.673L684.044 473.381C682.455 469.179 679.673 464.464 676.352 459.755L677.986 458.603ZM698.699 217.994C698.312 219.932 697.422 222.402 696.065 225.007L694.291 224.083C695.583 221.602 696.396 219.312 696.738 217.602L698.699 217.994ZM696.065 225.007C694.044 228.885 691.163 232.993 687.81 237.022L686.272 235.742C689.567 231.785 692.356 227.797 694.292 224.083L696.065 225.007ZM686.086 236.677C682.471 224.976 678.219 213.548 673.378 202.428L675.211 201.63C680.082 212.816 684.36 224.314 687.996 236.087L686.086 236.677ZM674.503 201.051C680.102 202.244 685.384 203.842 689.714 205.881L688.862 207.691C684.717 205.739 679.596 204.181 674.086 203.007L674.503 201.051ZM689.714 205.882C692.437 207.165 694.713 208.656 696.217 210.052L694.857 211.518C693.543 210.298 691.455 208.913 688.861 207.691L689.714 205.882ZM696.209 210.044C697.83 211.516 698.318 212.695 698.683 213.634L696.818 214.357C696.516 213.579 696.172 212.712 694.865 211.525L696.209 210.044ZM698.735 213.819C698.909 214.792 699.123 215.947 698.698 218.001L696.739 217.595C697.09 215.9 696.92 215.034 696.766 214.171L698.735 213.819Z" fill="#F5F5F5" mask="url(#path-1-inside-1_12_2)"/>
</svg>
