<svg width="234" height="214" viewBox="0 0 234 214" fill="none" xmlns="http://www.w3.org/2000/svg">
<mask id="path-1-inside-1_12_2" fill="white">
<path d="M233.202 64.8824C232.37 62.7054 230.92 60.8337 229.381 59.5562C227.837 58.2527 226.23 57.3754 224.677 56.6997C221.563 55.3811 218.582 54.7614 215.685 54.3552C213.793 54.1023 211.93 53.952 210.085 53.8662C191.492 21.7058 156.569 -4.91947e-06 116.641 -4.91947e-06C80.2645 -4.91947e-06 48.0471 18.0193 28.542 45.5424C26.0205 45.5271 23.4571 45.6321 20.8277 45.9384C17.937 46.3096 14.9458 46.8695 11.7976 48.3038C10.2376 49.0248 8.60986 50.0148 7.15003 51.4837C6.41648 52.1957 5.76009 53.0747 5.19832 53.9998C4.67065 54.9523 4.21373 55.968 3.96609 57.0144C3.40645 59.1159 3.50832 61.1507 3.83396 62.913C4.17068 64.6885 4.74695 66.2424 5.40419 67.6642C6.73403 70.5016 8.3878 72.8623 10.1225 75.0628C11.0219 76.1853 11.9485 77.2616 12.8952 78.3025C10.3323 87.439 8.95681 97.0624 8.95681 107.001C8.95681 113.663 9.58337 120.226 10.7747 126.643C9.54202 127.795 8.33324 128.996 7.16366 130.276C5.23029 132.411 3.38003 134.756 1.88695 137.678C1.15383 139.148 0.514489 140.792 0.186719 142.695C-0.151707 144.578 -0.0536746 146.818 0.675604 148.906C1.42662 150.985 2.77095 152.802 4.23376 154.07C5.69999 155.363 7.24848 156.261 8.75947 156.962C11.7912 158.339 14.7378 159.046 17.614 159.536C19.4906 159.846 21.3447 160.058 23.1848 160.208C25.3615 163.966 27.7795 167.614 30.4349 171.133C32.6454 174.063 36.8279 174.658 39.777 172.46C42.7261 170.263 43.3232 166.107 41.112 163.178C40.3776 162.205 39.6671 161.218 38.9732 160.223C48.3702 159.658 57.5819 158.336 66.7002 156.683C67.7718 156.488 68.8399 156.284 69.908 156.078L58.286 190.821L58.2843 190.825L58.246 190.939C58.2272 190.996 58.2161 191.053 58.1978 191.11C58.1543 191.252 58.1113 191.396 58.0776 191.541C58.0584 191.622 58.0461 191.703 58.0307 191.785C58.0051 191.915 57.9796 192.046 57.9629 192.177C57.9493 192.277 57.9429 192.378 57.9348 192.478C57.9259 192.589 57.9148 192.7 57.9114 192.811C57.9075 192.926 57.9101 193.042 57.9122 193.157C57.9139 193.253 57.9148 193.35 57.9212 193.446C57.9303 193.568 57.9423 193.689 57.9574 193.81C57.9685 193.9 57.9787 193.99 57.9924 194.081C58.0111 194.2 58.0367 194.317 58.0623 194.435C58.0823 194.527 58.1015 194.618 58.1262 194.71C58.1552 194.819 58.1888 194.926 58.2234 195.033C58.2545 195.132 58.2852 195.23 58.3214 195.326C58.3572 195.422 58.3973 195.515 58.4373 195.61C58.4821 195.714 58.5268 195.819 58.5767 195.921C58.6182 196.004 58.6615 196.086 58.7067 196.167C58.7651 196.274 58.8231 196.382 58.887 196.486C58.9339 196.562 58.985 196.637 59.0353 196.711C59.1035 196.813 59.1717 196.914 59.2463 197.013C59.3047 197.09 59.3674 197.164 59.4296 197.239C59.5033 197.328 59.5749 197.416 59.6542 197.501C59.7309 197.585 59.8128 197.664 59.8938 197.743C59.9645 197.813 60.034 197.883 60.1077 197.949C60.2087 198.04 60.3162 198.126 60.4244 198.211C60.4862 198.259 60.5463 198.311 60.6107 198.358C60.7343 198.449 60.8647 198.533 60.9968 198.616C61.0442 198.645 61.0868 198.679 61.1341 198.708C61.1545 198.72 61.1753 198.731 61.1963 198.743C61.2247 198.76 61.2536 198.777 61.2828 198.793C77.9552 208.74 97.0925 214 116.639 214C153.059 214 185.308 195.938 204.806 168.359C206.812 168.489 208.857 168.532 210.956 168.437C213.838 168.289 216.857 167.931 220.011 166.75C221.581 166.158 223.194 165.349 224.709 164.179C226.221 163.02 227.604 161.466 228.573 159.699L228.932 159.031L229.264 158.259C229.493 157.743 229.623 157.207 229.784 156.673C230.03 155.612 230.178 154.533 230.168 153.53C230.181 151.496 229.796 149.687 229.284 148.071C228.227 144.848 226.697 142.253 225.084 139.838C223.72 137.863 222.268 136.037 220.763 134.302C223.081 125.582 224.322 116.432 224.322 106.997C224.322 100.835 223.787 94.7966 222.776 88.9164C224.216 87.5193 225.623 86.0504 226.98 84.4756C228.891 82.2354 230.723 79.7773 232.195 76.7046C232.916 75.1597 233.545 73.4278 233.845 71.4182C234.162 69.4376 234.014 67.0671 233.202 64.8828M210.979 107.002C210.979 112.534 210.49 117.956 209.561 123.228C209.103 122.825 208.647 122.415 208.185 122.019C203.36 117.874 198.337 114.053 193.208 110.423C195.915 108.829 198.599 107.186 201.242 105.463C204.418 103.406 207.552 101.261 210.632 98.9994C210.858 101.639 210.979 104.307 210.979 107.002ZM145.017 149.341C140.885 146.932 136.726 144.641 132.536 142.446C130.993 141.615 129.438 140.818 127.878 140.031C128.129 139.944 128.382 139.861 128.633 139.772C132.641 138.357 136.628 136.879 140.6 135.361L145.017 149.341ZM124.172 127.578C119.919 129.14 115.643 130.647 111.352 132.108C109.009 131.082 106.611 129.992 104.351 128.948C101.093 127.412 97.8563 125.828 94.6306 124.22L108.303 83.3451C109.948 82.7484 111.602 82.173 113.256 81.596C116.215 82.8821 119.167 84.1882 122.102 85.534C123.18 86.0269 124.254 86.5314 125.331 87.0298L136.62 122.758C132.488 124.41 128.341 126.022 124.172 127.578ZM102.01 135.205C97.9271 136.509 93.8237 137.743 89.7094 138.931L92.4815 130.644C95.4813 132.109 98.4897 133.557 101.52 134.973L102.01 135.205ZM22.3033 107.002C22.3033 100.776 22.9231 94.6915 24.0948 88.8015C30.7184 94.2943 37.7 99.1728 44.7848 103.838C37.3109 107.884 29.935 112.168 22.8553 117.083C22.499 113.756 22.3033 110.395 22.3033 107.002ZM51.0427 98.967C46.8358 96.1181 42.7227 93.1466 38.7464 90.0338C34.7663 86.9286 30.8995 83.7026 27.2659 80.3061C26.9889 80.0477 26.7161 79.785 26.442 79.5241C28.8979 71.5801 32.3913 64.085 36.761 57.19C46.3 58.5662 55.8842 60.9982 65.3303 63.83C75.0053 66.6942 84.575 70.0531 94.0249 73.7349C95.0381 74.1214 96.0453 74.5268 97.0563 74.921L94.955 81.2009C88.6084 83.6184 82.3032 86.1508 76.0619 88.8451C68.0872 92.3009 60.1764 95.9331 52.3989 99.8678C51.9493 99.5636 51.4911 99.2723 51.0427 98.9665M113.613 67.4699L116.461 58.9561L120 70.156C117.878 69.2463 115.749 68.3498 113.613 67.4699ZM92.1444 89.6062L82.6399 118.023C74.7794 113.799 67.0689 109.318 59.5622 104.549C70.154 99.0669 81.0552 94.123 92.1444 89.6062ZM141.828 94.9712C144.388 96.2603 146.937 97.5673 149.468 98.9067C153.951 101.28 158.398 103.716 162.785 106.242C164.461 107.192 166.124 108.165 167.785 109.137C161.59 112.095 155.318 114.921 148.988 117.633L141.828 94.9712ZM207.384 86.6181C199.282 92.5051 190.365 97.598 181.313 102.411C177.371 99.8754 173.393 97.4046 169.364 95.0276C164.85 92.388 160.285 89.8475 155.687 87.3741C149.302 83.9627 142.85 80.682 136.326 77.5563L135.387 74.587C146.319 71.4831 157.375 68.8726 168.518 66.9091C178.777 65.1301 189.128 63.8206 199.312 63.5746C199.613 63.5673 199.915 63.5652 200.217 63.5609C203.884 70.499 206.707 77.9433 208.536 85.7643C208.153 86.05 207.771 86.3358 207.384 86.6181ZM116.641 13.2625C149.05 13.2625 177.692 29.587 194.682 54.3928C185.238 55.3081 176.029 57.0153 166.928 59.0407C156.489 61.3736 146.203 64.1704 136.015 67.2299C135.115 67.4955 134.222 67.7834 133.324 68.0563L123.008 35.4061C122.141 32.661 119.592 30.785 116.697 30.7616C113.807 30.7462 111.222 32.5713 110.309 35.301L101.189 62.5674C100.342 62.2462 99.5007 61.9139 98.6538 61.5987C88.8232 58.0314 78.8554 54.7956 68.7018 52.0479C60.7083 49.9495 52.6116 48.1261 44.307 46.9007C61.6247 26.3533 87.6217 13.2625 116.641 13.2625ZM14.1376 63.8556C13.3534 62.0126 13.1837 60.3041 13.4962 59.5823C13.6343 59.1949 13.8116 58.9254 14.2016 58.5871C14.5758 58.2518 15.1781 57.8755 15.9708 57.562C17.5202 56.9256 19.6194 56.5433 21.7982 56.3703C19.7685 60.1102 17.9545 63.9816 16.3762 67.9701C15.4696 66.5888 14.6866 65.1959 14.1376 63.8556ZM12.7835 148.101C11.8905 147.727 11.1357 147.287 10.6072 146.858C10.0616 146.423 9.82504 146.04 9.63665 145.669C9.50111 145.278 9.38986 144.823 9.48747 144.118C9.57698 143.429 9.83783 142.577 10.2504 141.687C10.9511 140.18 12.0142 138.599 13.2485 137.064C14.4871 141.286 15.9956 145.42 17.7567 149.458C15.938 149.145 14.219 148.701 12.7835 148.101ZM64.4156 145.373C54.3004 147.557 44.0721 149.294 33.9488 149.953C33.5626 149.977 33.1769 149.995 32.7907 150.015C28.9077 142.576 26.0772 134.685 24.3424 126.496C24.522 126.352 24.7021 126.208 24.8829 126.065C32.9322 119.797 41.7586 114.238 50.8577 109.196C51.2754 108.964 51.7016 108.745 52.1215 108.514C59.2054 112.897 66.4389 117.005 73.7245 120.995C75.9554 122.211 78.1965 123.404 80.4457 124.58L74.2607 143.071C70.9864 143.878 67.707 144.657 64.4156 145.373M116.641 200.742C101.246 200.742 86.1491 197.011 72.6504 189.933L85.0848 152.758C89.4221 151.707 93.7385 150.586 98.0366 149.409C104.816 147.557 111.53 145.498 118.198 143.308C121.659 145.247 125.065 147.275 128.363 149.453C132.579 152.238 136.679 155.181 140.521 158.384C142.413 160.016 144.319 161.619 146.067 163.353C146.954 164.212 147.806 165.08 148.637 165.958C149.031 166.404 149.446 166.851 149.819 167.292C150.18 167.712 150.617 168.229 150.797 168.528C151.2 169.197 151.738 169.832 152.384 170.351C153.593 171.321 155.033 171.807 156.474 171.851C157.314 171.922 158.182 171.838 159.036 171.572C162.552 170.475 164.508 166.753 163.404 163.26L153.019 130.393C154.852 129.624 156.685 128.857 158.506 128.059C163.414 125.916 168.269 123.647 173.09 121.294C175.728 119.98 178.348 118.626 180.957 117.245C187.712 121.629 194.268 126.265 200.482 131.19C202.48 132.791 204.432 134.434 206.314 136.122C203.684 144.1 200.004 151.606 195.437 158.485C193.094 158.219 190.74 157.889 188.387 157.508C183.421 156.678 178.43 155.705 173.46 154.574L173.431 154.567C171.768 154.194 170.063 155.134 169.524 156.776C168.953 158.518 169.911 160.391 171.664 160.959C176.626 162.567 181.631 164.116 186.764 165.348C187.785 165.595 188.811 165.835 189.84 166.065C172.528 187.209 146.147 200.742 116.641 200.742ZM218.969 151.53C219.278 152.338 219.433 153.065 219.464 153.597C219.496 153.875 219.457 154.071 219.45 154.264C219.413 154.339 219.432 154.441 219.39 154.508C219.376 154.545 219.366 154.584 219.36 154.626L219.27 154.809C219.039 155.307 218.723 155.747 218.226 156.189C217.734 156.626 217.054 157.046 216.235 157.406C214.753 158.058 212.86 158.506 210.854 158.767C212.954 155.008 214.832 151.111 216.472 147.093C217.541 148.612 218.448 150.147 218.969 151.53ZM223.042 69.7695C222.925 70.3538 222.653 71.1162 222.23 71.9307C221.597 73.1467 220.691 74.4435 219.628 75.7227C218.469 71.9628 217.106 68.2908 215.554 64.718C217.329 65.0972 218.992 65.6025 220.346 66.2419C221.196 66.6434 221.894 67.1039 222.344 67.5229C222.812 67.9487 222.945 68.2763 223.052 68.5514C223.104 68.8452 223.166 69.169 223.042 69.7695Z"/>
</mask>
<path d="M233.202 64.8824C232.37 62.7054 230.92 60.8337 229.381 59.5562C227.837 58.2527 226.23 57.3754 224.677 56.6997C221.563 55.3811 218.582 54.7614 215.685 54.3552C213.793 54.1023 211.93 53.952 210.085 53.8662C191.492 21.7058 156.569 -4.91947e-06 116.641 -4.91947e-06C80.2645 -4.91947e-06 48.0471 18.0193 28.542 45.5424C26.0205 45.5271 23.4571 45.6321 20.8277 45.9384C17.937 46.3096 14.9458 46.8695 11.7976 48.3038C10.2376 49.0248 8.60986 50.0148 7.15003 51.4837C6.41648 52.1957 5.76009 53.0747 5.19832 53.9998C4.67065 54.9523 4.21373 55.968 3.96609 57.0144C3.40645 59.1159 3.50832 61.1507 3.83396 62.913C4.17068 64.6885 4.74695 66.2424 5.40419 67.6642C6.73403 70.5016 8.3878 72.8623 10.1225 75.0628C11.0219 76.1853 11.9485 77.2616 12.8952 78.3025C10.3323 87.439 8.95681 97.0624 8.95681 107.001C8.95681 113.663 9.58337 120.226 10.7747 126.643C9.54202 127.795 8.33324 128.996 7.16366 130.276C5.23029 132.411 3.38003 134.756 1.88695 137.678C1.15383 139.148 0.514489 140.792 0.186719 142.695C-0.151707 144.578 -0.0536746 146.818 0.675604 148.906C1.42662 150.985 2.77095 152.802 4.23376 154.07C5.69999 155.363 7.24848 156.261 8.75947 156.962C11.7912 158.339 14.7378 159.046 17.614 159.536C19.4906 159.846 21.3447 160.058 23.1848 160.208C25.3615 163.966 27.7795 167.614 30.4349 171.133C32.6454 174.063 36.8279 174.658 39.777 172.46C42.7261 170.263 43.3232 166.107 41.112 163.178C40.3776 162.205 39.6671 161.218 38.9732 160.223C48.3702 159.658 57.5819 158.336 66.7002 156.683C67.7718 156.488 68.8399 156.284 69.908 156.078L58.286 190.821L58.2843 190.825L58.246 190.939C58.2272 190.996 58.2161 191.053 58.1978 191.11C58.1543 191.252 58.1113 191.396 58.0776 191.541C58.0584 191.622 58.0461 191.703 58.0307 191.785C58.0051 191.915 57.9796 192.046 57.9629 192.177C57.9493 192.277 57.9429 192.378 57.9348 192.478C57.9259 192.589 57.9148 192.7 57.9114 192.811C57.9075 192.926 57.9101 193.042 57.9122 193.157C57.9139 193.253 57.9148 193.35 57.9212 193.446C57.9303 193.568 57.9423 193.689 57.9574 193.81C57.9685 193.9 57.9787 193.99 57.9924 194.081C58.0111 194.2 58.0367 194.317 58.0623 194.435C58.0823 194.527 58.1015 194.618 58.1262 194.71C58.1552 194.819 58.1888 194.926 58.2234 195.033C58.2545 195.132 58.2852 195.23 58.3214 195.326C58.3572 195.422 58.3973 195.515 58.4373 195.61C58.4821 195.714 58.5268 195.819 58.5767 195.921C58.6182 196.004 58.6615 196.086 58.7067 196.167C58.7651 196.274 58.8231 196.382 58.887 196.486C58.9339 196.562 58.985 196.637 59.0353 196.711C59.1035 196.813 59.1717 196.914 59.2463 197.013C59.3047 197.09 59.3674 197.164 59.4296 197.239C59.5033 197.328 59.5749 197.416 59.6542 197.501C59.7309 197.585 59.8128 197.664 59.8938 197.743C59.9645 197.813 60.034 197.883 60.1077 197.949C60.2087 198.04 60.3162 198.126 60.4244 198.211C60.4862 198.259 60.5463 198.311 60.6107 198.358C60.7343 198.449 60.8647 198.533 60.9968 198.616C61.0442 198.645 61.0868 198.679 61.1341 198.708C61.1545 198.72 61.1753 198.731 61.1963 198.743C61.2247 198.76 61.2536 198.777 61.2828 198.793C77.9552 208.74 97.0925 214 116.639 214C153.059 214 185.308 195.938 204.806 168.359C206.812 168.489 208.857 168.532 210.956 168.437C213.838 168.289 216.857 167.931 220.011 166.75C221.581 166.158 223.194 165.349 224.709 164.179C226.221 163.02 227.604 161.466 228.573 159.699L228.932 159.031L229.264 158.259C229.493 157.743 229.623 157.207 229.784 156.673C230.03 155.612 230.178 154.533 230.168 153.53C230.181 151.496 229.796 149.687 229.284 148.071C228.227 144.848 226.697 142.253 225.084 139.838C223.72 137.863 222.268 136.037 220.763 134.302C223.081 125.582 224.322 116.432 224.322 106.997C224.322 100.835 223.787 94.7966 222.776 88.9164C224.216 87.5193 225.623 86.0504 226.98 84.4756C228.891 82.2354 230.723 79.7773 232.195 76.7046C232.916 75.1597 233.545 73.4278 233.845 71.4182C234.162 69.4376 234.014 67.0671 233.202 64.8828M210.979 107.002C210.979 112.534 210.49 117.956 209.561 123.228C209.103 122.825 208.647 122.415 208.185 122.019C203.36 117.874 198.337 114.053 193.208 110.423C195.915 108.829 198.599 107.186 201.242 105.463C204.418 103.406 207.552 101.261 210.632 98.9994C210.858 101.639 210.979 104.307 210.979 107.002ZM145.017 149.341C140.885 146.932 136.726 144.641 132.536 142.446C130.993 141.615 129.438 140.818 127.878 140.031C128.129 139.944 128.382 139.861 128.633 139.772C132.641 138.357 136.628 136.879 140.6 135.361L145.017 149.341ZM124.172 127.578C119.919 129.14 115.643 130.647 111.352 132.108C109.009 131.082 106.611 129.992 104.351 128.948C101.093 127.412 97.8563 125.828 94.6306 124.22L108.303 83.3451C109.948 82.7484 111.602 82.173 113.256 81.596C116.215 82.8821 119.167 84.1882 122.102 85.534C123.18 86.0269 124.254 86.5314 125.331 87.0298L136.62 122.758C132.488 124.41 128.341 126.022 124.172 127.578ZM102.01 135.205C97.9271 136.509 93.8237 137.743 89.7094 138.931L92.4815 130.644C95.4813 132.109 98.4897 133.557 101.52 134.973L102.01 135.205ZM22.3033 107.002C22.3033 100.776 22.9231 94.6915 24.0948 88.8015C30.7184 94.2943 37.7 99.1728 44.7848 103.838C37.3109 107.884 29.935 112.168 22.8553 117.083C22.499 113.756 22.3033 110.395 22.3033 107.002ZM51.0427 98.967C46.8358 96.1181 42.7227 93.1466 38.7464 90.0338C34.7663 86.9286 30.8995 83.7026 27.2659 80.3061C26.9889 80.0477 26.7161 79.785 26.442 79.5241C28.8979 71.5801 32.3913 64.085 36.761 57.19C46.3 58.5662 55.8842 60.9982 65.3303 63.83C75.0053 66.6942 84.575 70.0531 94.0249 73.7349C95.0381 74.1214 96.0453 74.5268 97.0563 74.921L94.955 81.2009C88.6084 83.6184 82.3032 86.1508 76.0619 88.8451C68.0872 92.3009 60.1764 95.9331 52.3989 99.8678C51.9493 99.5636 51.4911 99.2723 51.0427 98.9665M113.613 67.4699L116.461 58.9561L120 70.156C117.878 69.2463 115.749 68.3498 113.613 67.4699ZM92.1444 89.6062L82.6399 118.023C74.7794 113.799 67.0689 109.318 59.5622 104.549C70.154 99.0669 81.0552 94.123 92.1444 89.6062ZM141.828 94.9712C144.388 96.2603 146.937 97.5673 149.468 98.9067C153.951 101.28 158.398 103.716 162.785 106.242C164.461 107.192 166.124 108.165 167.785 109.137C161.59 112.095 155.318 114.921 148.988 117.633L141.828 94.9712ZM207.384 86.6181C199.282 92.5051 190.365 97.598 181.313 102.411C177.371 99.8754 173.393 97.4046 169.364 95.0276C164.85 92.388 160.285 89.8475 155.687 87.3741C149.302 83.9627 142.85 80.682 136.326 77.5563L135.387 74.587C146.319 71.4831 157.375 68.8726 168.518 66.9091C178.777 65.1301 189.128 63.8206 199.312 63.5746C199.613 63.5673 199.915 63.5652 200.217 63.5609C203.884 70.499 206.707 77.9433 208.536 85.7643C208.153 86.05 207.771 86.3358 207.384 86.6181ZM116.641 13.2625C149.05 13.2625 177.692 29.587 194.682 54.3928C185.238 55.3081 176.029 57.0153 166.928 59.0407C156.489 61.3736 146.203 64.1704 136.015 67.2299C135.115 67.4955 134.222 67.7834 133.324 68.0563L123.008 35.4061C122.141 32.661 119.592 30.785 116.697 30.7616C113.807 30.7462 111.222 32.5713 110.309 35.301L101.189 62.5674C100.342 62.2462 99.5007 61.9139 98.6538 61.5987C88.8232 58.0314 78.8554 54.7956 68.7018 52.0479C60.7083 49.9495 52.6116 48.1261 44.307 46.9007C61.6247 26.3533 87.6217 13.2625 116.641 13.2625ZM14.1376 63.8556C13.3534 62.0126 13.1837 60.3041 13.4962 59.5823C13.6343 59.1949 13.8116 58.9254 14.2016 58.5871C14.5758 58.2518 15.1781 57.8755 15.9708 57.562C17.5202 56.9256 19.6194 56.5433 21.7982 56.3703C19.7685 60.1102 17.9545 63.9816 16.3762 67.9701C15.4696 66.5888 14.6866 65.1959 14.1376 63.8556ZM12.7835 148.101C11.8905 147.727 11.1357 147.287 10.6072 146.858C10.0616 146.423 9.82504 146.04 9.63665 145.669C9.50111 145.278 9.38986 144.823 9.48747 144.118C9.57698 143.429 9.83783 142.577 10.2504 141.687C10.9511 140.18 12.0142 138.599 13.2485 137.064C14.4871 141.286 15.9956 145.42 17.7567 149.458C15.938 149.145 14.219 148.701 12.7835 148.101ZM64.4156 145.373C54.3004 147.557 44.0721 149.294 33.9488 149.953C33.5626 149.977 33.1769 149.995 32.7907 150.015C28.9077 142.576 26.0772 134.685 24.3424 126.496C24.522 126.352 24.7021 126.208 24.8829 126.065C32.9322 119.797 41.7586 114.238 50.8577 109.196C51.2754 108.964 51.7016 108.745 52.1215 108.514C59.2054 112.897 66.4389 117.005 73.7245 120.995C75.9554 122.211 78.1965 123.404 80.4457 124.58L74.2607 143.071C70.9864 143.878 67.707 144.657 64.4156 145.373M116.641 200.742C101.246 200.742 86.1491 197.011 72.6504 189.933L85.0848 152.758C89.4221 151.707 93.7385 150.586 98.0366 149.409C104.816 147.557 111.53 145.498 118.198 143.308C121.659 145.247 125.065 147.275 128.363 149.453C132.579 152.238 136.679 155.181 140.521 158.384C142.413 160.016 144.319 161.619 146.067 163.353C146.954 164.212 147.806 165.08 148.637 165.958C149.031 166.404 149.446 166.851 149.819 167.292C150.18 167.712 150.617 168.229 150.797 168.528C151.2 169.197 151.738 169.832 152.384 170.351C153.593 171.321 155.033 171.807 156.474 171.851C157.314 171.922 158.182 171.838 159.036 171.572C162.552 170.475 164.508 166.753 163.404 163.26L153.019 130.393C154.852 129.624 156.685 128.857 158.506 128.059C163.414 125.916 168.269 123.647 173.09 121.294C175.728 119.98 178.348 118.626 180.957 117.245C187.712 121.629 194.268 126.265 200.482 131.19C202.48 132.791 204.432 134.434 206.314 136.122C203.684 144.1 200.004 151.606 195.437 158.485C193.094 158.219 190.74 157.889 188.387 157.508C183.421 156.678 178.43 155.705 173.46 154.574L173.431 154.567C171.768 154.194 170.063 155.134 169.524 156.776C168.953 158.518 169.911 160.391 171.664 160.959C176.626 162.567 181.631 164.116 186.764 165.348C187.785 165.595 188.811 165.835 189.84 166.065C172.528 187.209 146.147 200.742 116.641 200.742ZM218.969 151.53C219.278 152.338 219.433 153.065 219.464 153.597C219.496 153.875 219.457 154.071 219.45 154.264C219.413 154.339 219.432 154.441 219.39 154.508C219.376 154.545 219.366 154.584 219.36 154.626L219.27 154.809C219.039 155.307 218.723 155.747 218.226 156.189C217.734 156.626 217.054 157.046 216.235 157.406C214.753 158.058 212.86 158.506 210.854 158.767C212.954 155.008 214.832 151.111 216.472 147.093C217.541 148.612 218.448 150.147 218.969 151.53ZM223.042 69.7695C222.925 70.3538 222.653 71.1162 222.23 71.9307C221.597 73.1467 220.691 74.4435 219.628 75.7227C218.469 71.9628 217.106 68.2908 215.554 64.718C217.329 65.0972 218.992 65.6025 220.346 66.2419C221.196 66.6434 221.894 67.1039 222.344 67.5229C222.812 67.9487 222.945 68.2763 223.052 68.5514C223.104 68.8452 223.166 69.169 223.042 69.7695Z" fill="#0C3943"/>
<path d="M229.381 59.5562L227.465 61.8646L227.456 61.8568L227.446 61.8489L229.381 59.5562ZM224.677 56.6997L225.847 53.937L225.861 53.9428L225.874 53.9488L224.677 56.6997ZM215.685 54.3552L216.083 51.3816L216.092 51.3829L216.102 51.3843L215.685 54.3552ZM210.085 53.8662L209.945 56.8629L208.308 56.7867L207.487 55.3677L210.085 53.8662ZM28.542 45.5424L30.9897 47.2771L30.0863 48.5519L28.5237 48.5424L28.542 45.5424ZM20.8277 45.9384L20.4457 42.9628L20.4631 42.9606L20.4807 42.9585L20.8277 45.9384ZM11.7976 48.3038L10.539 45.5805L10.5464 45.5771L10.5539 45.5738L11.7976 48.3038ZM7.15003 51.4837L9.27787 53.5985L9.25887 53.6176L9.23952 53.6364L7.15003 51.4837ZM5.19832 53.9998L2.57412 52.546L2.60306 52.4938L2.63406 52.4427L5.19832 53.9998ZM3.96609 57.0144L6.88546 57.7053L6.87582 57.746L6.86505 57.7865L3.96609 57.0144ZM3.83396 62.913L0.886464 63.4719L0.883903 63.4581L3.83396 62.913ZM5.40419 67.6642L2.68775 68.9374L2.68437 68.9302L2.68104 68.923L5.40419 67.6642ZM10.1225 75.0628L7.78133 76.9386L7.77393 76.9294L7.7666 76.9201L10.1225 75.0628ZM12.8952 78.3025L15.1146 76.284L16.2324 77.5131L15.7837 79.1128L12.8952 78.3025ZM10.7747 126.643L13.7243 126.095L14.0244 127.711L12.8234 128.834L10.7747 126.643ZM7.16366 130.276L4.93966 128.262L4.94444 128.257L4.94924 128.252L7.16366 130.276ZM1.88695 137.678L-0.797452 136.339L-0.79107 136.326L-0.784566 136.314L1.88695 137.678ZM0.186719 142.695L3.14322 143.204L3.14134 143.215L3.13938 143.226L0.186719 142.695ZM0.675604 148.906L-2.14598 149.925L-2.15136 149.91L-2.15658 149.895L0.675604 148.906ZM4.23376 154.07L6.19848 151.802L6.20823 151.811L6.2179 151.819L4.23376 154.07ZM8.75947 156.962L7.51948 159.694L7.50761 159.689L7.49579 159.683L8.75947 156.962ZM17.614 159.536L17.1249 162.496L17.1173 162.495L17.1098 162.494L17.614 159.536ZM23.1848 160.208L23.4284 157.218L24.9937 157.346L25.7808 158.705L23.1848 160.208ZM30.4349 171.133L32.8296 169.326L32.8299 169.326L30.4349 171.133ZM39.777 172.46L37.9845 170.055L37.9847 170.054L39.777 172.46ZM41.112 163.178L38.7175 164.985L38.7175 164.985L41.112 163.178ZM38.9732 160.223L36.5123 161.939L33.4515 157.549L38.7933 157.228L38.9732 160.223ZM66.7002 156.683L67.2356 159.635L67.2355 159.635L66.7002 156.683ZM69.908 156.078L69.3403 153.132L74.3819 152.16L72.7531 157.03L69.908 156.078ZM58.286 190.821L61.1311 191.773L61.1041 191.853L61.0726 191.933L58.286 190.821ZM58.2843 190.825L55.442 189.866L55.4678 189.789L55.4978 189.714L58.2843 190.825ZM58.246 190.939L55.3972 189.998L55.4004 189.989L55.4036 189.979L58.246 190.939ZM58.1978 191.11L55.3281 190.235L55.3343 190.215L55.3407 190.195L58.1978 191.11ZM58.0776 191.541L61.0001 192.219L60.9972 192.231L58.0776 191.541ZM58.0307 191.785L60.979 192.339L60.977 192.35L60.9749 192.361L58.0307 191.785ZM57.9629 192.177L60.9391 192.554L60.9374 192.567L60.9356 192.581L57.9629 192.177ZM57.9348 192.478L60.9252 192.719L60.9251 192.719L57.9348 192.478ZM57.9114 192.811L60.91 192.903L60.9097 192.911L57.9114 192.811ZM57.9122 193.157L60.9117 193.101L60.9118 193.104L57.9122 193.157ZM57.9212 193.446L54.9295 193.669L54.9286 193.657L54.9279 193.646L57.9212 193.446ZM57.9574 193.81L60.9343 193.438L60.935 193.444L57.9574 193.81ZM57.9924 194.081L55.0286 194.546L55.0272 194.537L55.0258 194.528L57.9924 194.081ZM58.0623 194.435L60.9936 193.796L60.9939 193.798L58.0623 194.435ZM58.1262 194.71L61.0221 193.926L61.0241 193.934L61.026 193.941L58.1262 194.71ZM58.2234 195.033L61.08 194.117L61.0833 194.128L58.2234 195.033ZM58.3214 195.326L61.1301 194.272L61.1311 194.275L58.3214 195.326ZM58.4373 195.61L55.679 196.789L55.6758 196.782L58.4373 195.61ZM58.5767 195.921L55.8923 197.261L55.8856 197.247L55.879 197.234L58.5767 195.921ZM58.7067 196.167L61.3257 194.704L61.3323 194.716L61.3388 194.728L58.7067 196.167ZM58.887 196.486L61.4413 194.912L61.4483 194.924L58.887 196.486ZM59.0353 196.711L61.5199 195.03L61.5249 195.037L61.5299 195.045L59.0353 196.711ZM59.2463 197.013L56.8573 198.828L56.8532 198.822L59.2463 197.013ZM59.4296 197.239L57.1257 199.161L57.1187 199.152L59.4296 197.239ZM59.6542 197.501L61.8481 195.455L61.8544 195.462L61.8607 195.469L59.6542 197.501ZM59.8938 197.743L61.9946 195.601L61.9979 195.605L59.8938 197.743ZM60.1077 197.949L62.1119 195.717L62.1154 195.72L60.1077 197.949ZM60.4244 198.211L62.277 195.851L62.281 195.854L60.4244 198.211ZM60.6107 198.358L62.3795 195.935L62.387 195.94L62.3944 195.946L60.6107 198.358ZM60.9968 198.616L62.5848 196.07L62.5922 196.075L62.5995 196.08L60.9968 198.616ZM61.1341 198.708L59.6472 201.313L59.6141 201.295L59.5814 201.275L61.1341 198.708ZM61.1963 198.743L62.6795 196.136L62.711 196.154L62.7422 196.172L61.1963 198.743ZM61.2828 198.793L62.7181 196.158L62.7696 196.187L62.82 196.217L61.2828 198.793ZM204.806 168.359L202.357 166.627L203.326 165.256L205.001 165.365L204.806 168.359ZM210.956 168.437L211.109 171.433L211.101 171.433L211.092 171.434L210.956 168.437ZM220.011 166.75L221.069 169.557L221.064 169.559L220.011 166.75ZM224.709 164.179L222.876 161.804L222.884 161.798L224.709 164.179ZM228.573 159.699L231.217 161.117L231.21 161.13L231.204 161.142L228.573 159.699ZM228.932 159.031L231.687 160.217L231.636 160.335L231.575 160.449L228.932 159.031ZM229.264 158.259L226.509 157.073L226.516 157.056L226.523 157.04L229.264 158.259ZM229.784 156.673L232.707 157.349L232.685 157.445L232.656 157.541L229.784 156.673ZM230.168 153.53L227.169 153.558L227.168 153.534L227.169 153.511L230.168 153.53ZM229.284 148.071L232.135 147.136L232.139 147.15L232.144 147.164L229.284 148.071ZM225.084 139.838L227.552 138.133L227.566 138.152L227.579 138.172L225.084 139.838ZM220.763 134.302L218.497 136.267L217.456 135.067L217.864 133.531L220.763 134.302ZM222.776 88.9164L219.819 89.4248L219.551 87.8653L220.687 86.7634L222.776 88.9164ZM226.98 84.4756L229.263 86.4222L229.258 86.4282L229.253 86.4341L226.98 84.4756ZM232.195 76.7046L234.913 77.9742L234.907 77.9876L234.9 78.0009L232.195 76.7046ZM233.845 71.4182L230.878 70.9745L230.88 70.9595L230.883 70.9445L233.845 71.4182ZM209.561 123.228L212.516 123.748L211.59 128.999L207.583 125.483L209.561 123.228ZM208.185 122.019L206.233 124.297L206.23 124.295L208.185 122.019ZM193.208 110.423L191.475 112.871L187.689 110.191L191.686 107.838L193.208 110.423ZM201.242 105.463L199.605 102.95L199.611 102.946L201.242 105.463ZM210.632 98.9994L208.856 96.5813L213.165 93.4175L213.621 98.7436L210.632 98.9994ZM145.017 149.341L147.878 148.437L150.219 155.847L143.506 151.933L145.017 149.341ZM132.536 142.446L131.144 145.103L131.129 145.095L131.115 145.087L132.536 142.446ZM127.878 140.031L126.527 142.71L120.21 139.525L126.891 137.198L127.878 140.031ZM128.633 139.772L127.633 136.944L127.635 136.943L128.633 139.772ZM140.6 135.361L139.529 132.559L142.502 131.422L143.461 134.457L140.6 135.361ZM124.172 127.578L125.22 130.389L125.213 130.391L125.206 130.394L124.172 127.578ZM111.352 132.108L112.319 134.948L111.216 135.324L110.148 134.856L111.352 132.108ZM104.351 128.948L103.093 131.671L103.082 131.666L103.071 131.661L104.351 128.948ZM94.6306 124.22L93.2918 126.904L90.9584 125.741L91.7855 123.268L94.6306 124.22ZM108.303 83.3451L105.458 82.3934L105.917 81.0188L107.28 80.5247L108.303 83.3451ZM113.256 81.596L112.267 78.7636L113.375 78.3769L114.451 78.8445L113.256 81.596ZM122.102 85.534L120.855 88.2625L120.851 88.2609L122.102 85.534ZM125.331 87.0298L126.591 84.3074L127.793 84.8636L128.192 86.126L125.331 87.0298ZM136.62 122.758L139.48 121.855L140.319 124.51L137.733 125.544L136.62 122.758ZM102.01 135.205L103.293 132.492L110.175 135.746L102.923 138.062L102.01 135.205ZM89.7094 138.931L90.5415 141.813L85.0514 143.398L86.8643 137.979L89.7094 138.931ZM92.4815 130.644L89.6365 129.692L90.7224 126.447L93.7981 127.949L92.4815 130.644ZM101.52 134.973L102.789 132.255L102.802 132.26L101.52 134.973ZM24.0948 88.8015L21.1524 88.2162L22.1346 83.2787L26.0098 86.4922L24.0948 88.8015ZM44.7848 103.838L46.4347 101.333L50.6218 104.09L46.2129 106.477L44.7848 103.838ZM22.8553 117.083L24.5662 119.548L20.411 122.432L19.8724 117.403L22.8553 117.083ZM38.7464 90.0338L40.5917 87.6684L40.5957 87.6715L38.7464 90.0338ZM27.2659 80.3061L29.3121 78.1123L29.3145 78.1145L27.2659 80.3061ZM26.442 79.5241L24.3732 81.6966L23.0267 80.4144L23.5759 78.638L26.442 79.5241ZM36.761 57.19L34.227 55.5841L35.2668 53.9434L37.1894 54.2207L36.761 57.19ZM65.3303 63.83L64.4787 66.7066L64.4688 66.7036L65.3303 63.83ZM94.0249 73.7349L92.9555 76.5378L92.9457 76.534L92.9358 76.5302L94.0249 73.7349ZM97.0563 74.921L98.1461 72.126L100.808 73.1638L99.9012 75.8729L97.0563 74.921ZM94.955 81.2009L97.7999 82.1529L97.3495 83.4991L96.0229 84.0044L94.955 81.2009ZM76.0619 88.8451L74.8691 86.0924L74.8729 86.0908L76.0619 88.8451ZM52.3989 99.8678L53.7532 102.545L52.1794 103.341L50.7183 102.353L52.3989 99.8678ZM113.613 67.4699L112.47 70.2437L109.879 69.176L110.768 66.5182L113.613 67.4699ZM116.461 58.9561L113.616 58.0044L116.543 49.2566L119.322 58.0522L116.461 58.9561ZM120 70.156L122.861 69.2521L124.832 75.491L118.818 72.9134L120 70.156ZM92.1444 89.6062L91.0127 86.8278L97.061 84.3643L94.9895 90.5578L92.1444 89.6062ZM82.6399 118.023L85.485 118.975L84.3558 122.351L81.2198 120.666L82.6399 118.023ZM59.5622 104.549L57.9534 107.081L53.5491 104.283L58.1833 101.884L59.5622 104.549ZM141.828 94.9712L138.968 95.875L136.825 89.0923L143.178 92.2919L141.828 94.9712ZM149.468 98.9067L150.871 96.2551L150.872 96.2553L149.468 98.9067ZM162.785 106.242L161.305 108.851L161.297 108.846L161.288 108.842L162.785 106.242ZM167.785 109.137L169.301 106.548L174.182 109.407L169.077 111.844L167.785 109.137ZM148.988 117.633L150.17 120.391L147.125 121.696L146.127 118.537L148.988 117.633ZM207.384 86.6181L209.152 89.0417L209.147 89.045L207.384 86.6181ZM181.313 102.411L182.722 105.06L181.169 105.886L179.69 104.934L181.313 102.411ZM169.364 95.0276L170.878 92.4379L170.888 92.4438L169.364 95.0276ZM155.687 87.3741L157.101 84.7281L157.108 84.7321L155.687 87.3741ZM136.326 77.5563L135.03 80.2619L133.857 79.7001L133.465 78.4601L136.326 77.5563ZM135.387 74.587L132.527 75.4908L131.596 72.5449L134.568 71.7011L135.387 74.587ZM168.518 66.9091L167.998 63.9546L168.006 63.9532L168.518 66.9091ZM199.312 63.5746L199.24 60.5754L199.24 60.5754L199.312 63.5746ZM200.217 63.5609L200.175 60.5612L202.011 60.5352L202.869 62.159L200.217 63.5609ZM208.536 85.7643L211.457 85.081L211.905 86.9945L210.329 88.1692L208.536 85.7643ZM194.682 54.3928L197.157 52.6975L200.028 56.8887L194.971 57.3788L194.682 54.3928ZM166.928 59.0407L166.274 56.1129L166.277 56.1123L166.928 59.0407ZM136.015 67.2299L136.878 70.1031L136.871 70.1052L136.864 70.1072L136.015 67.2299ZM133.324 68.0563L134.196 70.9268L131.357 71.7891L130.463 68.9601L133.324 68.0563ZM123.008 35.4061L125.869 34.5018L125.869 34.5023L123.008 35.4061ZM116.697 30.7616L116.713 27.7616L116.721 27.7617L116.697 30.7616ZM110.309 35.301L113.154 36.2526L113.154 36.2526L110.309 35.301ZM101.189 62.5674L104.034 63.5191L103.043 66.4799L100.124 65.3723L101.189 62.5674ZM98.6538 61.5987L99.6771 58.7786L99.6887 58.7828L99.7002 58.7871L98.6538 61.5987ZM68.7018 52.0479L69.4635 49.1462L69.4745 49.1491L69.4854 49.1521L68.7018 52.0479ZM44.307 46.9007L43.8691 49.8685L38.5444 49.0829L42.0131 44.9673L44.307 46.9007ZM14.1376 63.8556L16.8981 62.6809L16.9061 62.6997L16.9138 62.7185L14.1376 63.8556ZM13.4962 59.5823L16.322 60.5896L16.2887 60.683L16.2493 60.7739L13.4962 59.5823ZM14.2016 58.5871L16.2034 60.8215L16.1855 60.8376L16.1673 60.8534L14.2016 58.5871ZM15.9708 57.562L17.1107 60.337L17.0924 60.3445L17.0741 60.3518L15.9708 57.562ZM21.7982 56.3703L21.5608 53.3798L27.0721 52.9422L24.435 57.8013L21.7982 56.3703ZM16.3762 67.9701L19.1657 69.0739L17.0392 74.4477L13.8681 69.6162L16.3762 67.9701ZM12.7835 148.101L11.6271 150.87L11.623 150.868L12.7835 148.101ZM10.6072 146.858L12.4769 144.512L12.4883 144.521L12.4996 144.53L10.6072 146.858ZM9.63665 145.669L6.96089 147.025L6.86891 146.844L6.80227 146.652L9.63665 145.669ZM9.48747 144.118L12.4625 144.505L12.4608 144.517L12.4591 144.53L9.48747 144.118ZM10.2504 141.687L7.5286 140.425L7.53015 140.422L10.2504 141.687ZM13.2485 137.064L10.9109 135.184L14.5102 130.709L16.1271 136.22L13.2485 137.064ZM17.7567 149.458L20.5065 148.259L22.7305 153.357L17.2485 152.415L17.7567 149.458ZM33.9488 149.953L34.1437 152.946L34.1342 152.947L33.9488 149.953ZM32.7907 150.015L32.9464 153.011L31.0226 153.111L30.1312 151.404L32.7907 150.015ZM24.3424 126.496L21.4075 127.118L21.0253 125.313L22.4628 124.158L24.3424 126.496ZM24.8829 126.065L23.0195 123.714L23.0296 123.706L23.0397 123.698L24.8829 126.065ZM50.8577 109.196L52.316 111.818L52.3116 111.821L50.8577 109.196ZM52.1215 108.514L50.677 105.885L52.2112 105.042L53.6999 105.963L52.1215 108.514ZM73.7245 120.995L72.2891 123.63L72.2835 123.626L73.7245 120.995ZM80.4457 124.58L81.8356 121.921L84.102 123.106L83.2908 125.531L80.4457 124.58ZM74.2607 143.071L77.1057 144.022L76.5819 145.589L74.9784 145.984L74.2607 143.071ZM72.6504 189.933L71.2572 192.59L68.9951 191.403L69.8053 188.981L72.6504 189.933ZM85.0848 152.758L82.2397 151.806L82.766 150.233L84.3784 149.842L85.0848 152.758ZM98.0366 149.409L97.2444 146.515L97.2462 146.515L98.0366 149.409ZM118.198 143.308L117.262 140.458L118.514 140.047L119.664 140.691L118.198 143.308ZM128.363 149.453L130.016 146.95L130.017 146.95L128.363 149.453ZM140.521 158.384L142.442 156.08L142.461 156.096L142.48 156.112L140.521 158.384ZM146.067 163.353L143.98 165.509L143.967 165.496L143.954 165.483L146.067 163.353ZM148.637 165.958L150.816 163.896L150.852 163.934L150.887 163.974L148.637 165.958ZM149.819 167.292L147.545 169.25L147.536 169.239L147.528 169.229L149.819 167.292ZM150.797 168.528L148.227 170.076L148.223 170.07L150.797 168.528ZM152.384 170.351L154.261 168.011L154.262 168.011L152.384 170.351ZM156.474 171.851L156.566 168.852L156.647 168.855L156.728 168.862L156.474 171.851ZM159.036 171.572L159.929 174.436L159.928 174.436L159.036 171.572ZM163.404 163.26L160.543 164.164L160.543 164.164L163.404 163.26ZM153.019 130.393L150.159 131.297L149.334 128.685L151.859 127.626L153.019 130.393ZM158.506 128.059L157.302 125.311L157.306 125.31L158.506 128.059ZM173.09 121.294L174.428 123.979L174.417 123.984L174.406 123.99L173.09 121.294ZM180.957 117.245L179.553 114.593L181.111 113.768L182.59 114.728L180.957 117.245ZM200.482 131.19L202.345 128.838L202.352 128.843L202.358 128.849L200.482 131.19ZM206.314 136.122L208.317 133.89L209.777 135.199L209.163 137.062L206.314 136.122ZM195.437 158.485L197.937 160.144L196.922 161.672L195.099 161.466L195.437 158.485ZM188.387 157.508L187.907 160.469L187.9 160.468L187.892 160.467L188.387 157.508ZM173.46 154.574L172.794 157.499L172.773 157.494L172.751 157.489L173.46 154.574ZM173.431 154.567L174.086 151.639L174.113 151.645L174.14 151.652L173.431 154.567ZM169.524 156.776L166.673 155.842L166.674 155.84L169.524 156.776ZM171.664 160.959L170.739 163.813L170.739 163.813L171.664 160.959ZM186.764 165.348L187.464 162.431L187.471 162.432L186.764 165.348ZM189.84 166.065L190.496 163.138L195.244 164.201L192.162 167.966L189.84 166.065ZM218.969 151.53L216.166 152.599L216.163 152.589L218.969 151.53ZM219.464 153.597L216.484 153.944L216.474 153.856L216.469 153.767L219.464 153.597ZM219.45 154.264L222.448 154.376L222.424 155.017L222.14 155.591L219.45 154.264ZM219.39 154.508L216.582 153.452L216.687 153.174L216.844 152.922L219.39 154.508ZM219.36 154.626L222.326 155.075L222.257 155.531L222.054 155.945L219.36 154.626ZM219.27 154.809L216.548 153.548L216.562 153.519L216.576 153.49L219.27 154.809ZM218.226 156.189L216.233 153.947L216.235 153.945L218.226 156.189ZM216.235 157.406L215.027 154.66L215.028 154.659L216.235 157.406ZM210.854 158.767L211.242 161.742L205.325 162.513L208.235 157.304L210.854 158.767ZM216.472 147.093L213.695 145.96L215.769 140.88L218.926 145.367L216.472 147.093ZM223.042 69.7695L220.099 69.1836L220.101 69.1731L220.104 69.1627L223.042 69.7695ZM222.23 71.9307L224.892 73.314L224.891 73.3151L222.23 71.9307ZM219.628 75.7227L221.936 77.6396L218.394 81.9036L216.761 76.6064L219.628 75.7227ZM215.554 64.718L212.802 65.9134L210.479 60.5663L216.18 61.7841L215.554 64.718ZM220.346 66.2419L221.627 63.529L221.628 63.5294L220.346 66.2419ZM222.344 67.5229L220.325 69.7418L220.313 69.7308L220.301 69.7196L222.344 67.5229ZM223.052 68.5514L225.849 67.4677L225.954 67.7385L226.005 68.0245L223.052 68.5514ZM230.399 65.9534C229.766 64.2976 228.641 62.8408 227.465 61.8646L231.297 57.2478C233.2 58.8267 234.973 61.1132 236.004 63.8114L230.399 65.9534ZM227.446 61.8489C226.185 60.7847 224.851 60.0471 223.48 59.4505L225.874 53.9488C227.609 54.7036 229.488 55.7206 231.316 57.2636L227.446 61.8489ZM223.508 59.4623C220.724 58.284 218.027 57.7128 215.269 57.3261L216.102 51.3843C219.138 51.81 222.401 52.4782 225.847 53.937L223.508 59.4623ZM215.288 57.3288C213.497 57.0895 211.722 56.9456 209.945 56.8629L210.224 50.8694C212.138 50.9584 214.089 51.1152 216.083 51.3816L215.288 57.3288ZM207.487 55.3677C189.41 24.0993 155.458 3 116.641 3V-3C157.68 -3 193.573 19.3123 212.682 52.3646L207.487 55.3677ZM116.641 3C81.277 3 49.9557 20.5147 30.9897 47.2771L26.0944 43.8078C46.1386 15.5239 79.2521 -3 116.641 -3V3ZM28.5237 48.5424C26.0981 48.5276 23.6594 48.6289 21.1748 48.9182L20.4807 42.9585C23.2548 42.6354 25.9429 42.5265 28.5603 42.5425L28.5237 48.5424ZM21.2098 48.914C18.4409 49.2695 15.7915 49.7809 13.0414 51.0338L10.5539 45.5738C14.1 43.9581 17.4332 43.3496 20.4457 42.9628L21.2098 48.914ZM13.0562 51.027C11.7245 51.6425 10.4217 52.4475 9.27787 53.5985L5.02218 49.3689C6.79797 47.5821 8.75073 46.407 10.539 45.5805L13.0562 51.027ZM9.23952 53.6364C8.73724 54.1239 8.2323 54.7834 7.76259 55.5569L2.63406 52.4427C3.28789 51.366 4.09573 50.2675 5.06054 49.331L9.23952 53.6364ZM7.82252 55.4536C7.36789 56.2743 7.04682 57.0234 6.88546 57.7053L1.04673 56.3236C1.38064 54.9126 1.97341 53.6303 2.57412 52.546L7.82252 55.4536ZM6.86505 57.7865C6.4539 59.3303 6.51114 60.8911 6.78402 62.3679L0.883903 63.4581C0.505503 61.4103 0.359006 58.9014 1.06713 56.2424L6.86505 57.7865ZM6.78143 62.354C7.05985 63.8221 7.54075 65.1365 8.12734 66.4055L2.68104 68.923C1.95314 67.3483 1.28151 65.5549 0.886497 63.4719L6.78143 62.354ZM8.12063 66.3911C9.31431 68.9379 10.8153 71.0957 12.4785 73.2055L7.7666 76.9201C5.96031 74.6288 4.15374 72.0653 2.68775 68.9374L8.12063 66.3911ZM12.4638 73.187C13.3195 74.255 14.2049 75.2838 15.1146 76.284L10.6758 80.321C9.69214 79.2394 8.72427 78.1155 7.78133 76.9386L12.4638 73.187ZM15.7837 79.1128C13.2936 87.9896 11.9568 97.3405 11.9568 107.001H5.95681C5.95681 96.7843 7.37091 86.8884 10.0067 77.4922L15.7837 79.1128ZM11.9568 107.001C11.9568 113.474 12.5656 119.854 13.7243 126.095L7.82508 127.19C6.60115 120.597 5.95681 113.851 5.95681 107.001H11.9568ZM12.8234 128.834C11.6354 129.945 10.484 131.09 9.37809 132.3L4.94924 128.252C6.18243 126.902 7.44864 125.645 8.72593 124.451L12.8234 128.834ZM9.38767 132.289C7.54985 134.319 5.88661 136.444 4.55846 139.043L-0.784566 136.314C0.873447 133.068 2.91073 130.503 4.93966 128.262L9.38767 132.289ZM4.57135 139.018C3.92812 140.307 3.40785 141.667 3.14322 143.204L-2.76978 142.186C-2.37887 139.916 -1.62045 137.989 -0.797452 136.339L4.57135 139.018ZM3.13938 143.226C2.88514 144.64 2.96198 146.354 3.50779 147.916L-2.15658 149.895C-3.06932 147.282 -3.18855 144.515 -2.76594 142.165L3.13938 143.226ZM3.49718 147.887C4.05941 149.443 5.08957 150.841 6.19848 151.802L2.26905 156.337C0.452326 154.762 -1.20617 152.527 -2.14598 149.925L3.49718 147.887ZM6.2179 151.819C7.40945 152.87 8.69219 153.623 10.0231 154.242L7.49579 159.683C5.80478 158.898 3.99053 157.855 2.24963 156.32L6.2179 151.819ZM9.99946 154.231C12.7099 155.461 15.3807 156.112 18.1181 156.579L17.1098 162.494C14.0948 161.98 10.8726 161.216 7.51948 159.694L9.99946 154.231ZM18.103 156.576C19.8831 156.871 21.6535 157.073 23.4284 157.218L22.9411 163.198C21.0359 163.043 19.0982 162.822 17.1249 162.496L18.103 156.576ZM25.7808 158.705C27.8965 162.357 30.2472 165.904 32.8296 169.326L28.0402 172.94C25.3118 169.324 22.8266 165.575 20.5888 161.712L25.7808 158.705ZM32.8299 169.326C34.0435 170.935 36.3543 171.269 37.9845 170.055L41.5696 174.866C37.3016 178.046 31.2472 177.191 28.04 172.94L32.8299 169.326ZM37.9847 170.054C39.603 168.849 39.9233 166.582 38.7175 164.985L43.5064 161.37C46.7232 165.632 45.8492 171.677 41.5693 174.866L37.9847 170.054ZM38.7175 164.985C37.9563 163.976 37.2235 162.959 36.5123 161.939L41.434 158.507C42.1106 159.477 42.7988 160.433 43.5065 161.37L38.7175 164.985ZM38.7933 157.228C48.0306 156.673 57.1158 155.372 66.165 153.731L67.2355 159.635C58.0479 161.301 48.7099 162.643 39.153 163.217L38.7933 157.228ZM66.1649 153.731C67.2187 153.54 68.2727 153.338 69.3403 153.132L70.4758 159.024C69.407 159.23 68.3248 159.437 67.2356 159.635L66.1649 153.731ZM72.7531 157.03L61.1311 191.773L55.441 189.869L67.063 155.126L72.7531 157.03ZM61.0726 191.933L61.0708 191.937L55.4978 189.714L55.4995 189.71L61.0726 191.933ZM61.1267 191.785L61.0883 191.899L55.4036 189.979L55.442 189.866L61.1267 191.785ZM61.0947 191.879C61.1089 191.837 61.1183 191.804 61.1228 191.788C61.1267 191.774 61.129 191.765 61.125 191.78C61.1229 191.788 61.1138 191.823 61.1037 191.86C61.0926 191.9 61.0764 191.958 61.0549 192.025L55.3407 190.195C55.3284 190.233 55.3204 190.262 55.3172 190.274C55.3148 190.282 55.3131 190.289 55.3184 190.269C55.3219 190.255 55.3316 190.218 55.3434 190.176C55.3558 190.131 55.3737 190.07 55.3972 189.998L61.0947 191.879ZM61.0675 191.984C61.0227 192.131 61.0079 192.185 61.0001 192.219L55.1551 190.864C55.2146 190.607 55.2859 190.374 55.3281 190.235L61.0675 191.984ZM60.9972 192.231C61.0049 192.199 61.0077 192.181 61.0038 192.202C61.0017 192.214 60.9999 192.224 60.9954 192.25C60.9915 192.271 60.9857 192.304 60.979 192.339L55.0824 191.23C55.0911 191.184 55.0829 191.226 55.1016 191.123C55.1126 191.063 55.1311 190.965 55.158 190.851L60.9972 192.231ZM60.9749 192.361C60.9611 192.431 60.9533 192.472 60.9467 192.508C60.9407 192.542 60.9391 192.554 60.9391 192.554L54.9868 191.799C55.0183 191.551 55.0646 191.321 55.0865 191.209L60.9749 192.361ZM60.9356 192.581C60.9381 192.563 60.9379 192.559 60.9358 192.584C60.9347 192.596 60.9335 192.612 60.9317 192.635C60.9302 192.655 60.9276 192.688 60.9252 192.719L54.9444 192.238C54.9471 192.205 54.9621 191.98 54.9903 191.773L60.9356 192.581ZM60.9251 192.719C60.9223 192.755 60.9192 192.79 60.9172 192.815C60.9148 192.842 60.9133 192.861 60.912 192.877C60.9094 192.911 60.9096 192.915 60.91 192.903L54.9128 192.719C54.9192 192.509 54.9418 192.271 54.9445 192.237L60.9251 192.719ZM60.9097 192.911C60.909 192.932 60.9091 192.962 60.9117 193.101L54.9127 193.212C54.9111 193.121 54.9061 192.921 54.913 192.711L60.9097 192.911ZM60.9118 193.104C60.912 193.118 60.9122 193.131 60.9124 193.143C60.9126 193.156 60.9128 193.166 60.913 193.177C60.9134 193.198 60.9137 193.213 60.914 193.225C60.9146 193.251 60.9151 193.254 60.9145 193.246L54.9279 193.646C54.9152 193.457 54.9137 193.265 54.9127 193.21L60.9118 193.104ZM60.9129 193.223C60.9183 193.295 60.9254 193.367 60.9343 193.438L54.9805 194.181C54.9593 194.011 54.9423 193.84 54.9295 193.669L60.9129 193.223ZM60.935 193.444C60.9509 193.573 60.9533 193.597 60.9589 193.634L55.0258 194.528C55.0042 194.384 54.9861 194.227 54.9798 194.176L60.935 193.444ZM60.9561 193.616C60.9565 193.618 60.9585 193.631 60.9648 193.662C60.9717 193.696 60.9796 193.732 60.9936 193.796L55.1309 195.073C55.1093 194.973 55.0635 194.768 55.0286 194.546L60.9561 193.616ZM60.9939 193.798C60.9967 193.811 60.9995 193.824 61.0019 193.835C61.0044 193.846 61.0065 193.856 61.0086 193.865C61.0127 193.884 61.0157 193.898 61.0182 193.909C61.0232 193.931 61.0242 193.934 61.0221 193.926L55.2302 195.493C55.181 195.311 55.1434 195.13 55.1306 195.071L60.9939 193.798ZM61.026 193.941C61.0335 193.969 61.046 194.011 61.08 194.117L55.3667 195.95C55.3317 195.84 55.2769 195.669 55.2263 195.478L61.026 193.941ZM61.0833 194.128C61.1016 194.185 61.1107 194.214 61.1202 194.243C61.1285 194.268 61.1312 194.275 61.1301 194.272L55.5127 196.381C55.443 196.195 55.3869 196.013 55.3634 195.939L61.0833 194.128ZM61.1311 194.275C61.1388 194.296 61.1487 194.319 61.1989 194.437L55.6758 196.782C55.6459 196.711 55.5756 196.549 55.5117 196.378L61.1311 194.275ZM61.1957 194.43C61.2452 194.546 61.2618 194.583 61.2744 194.609L55.879 197.234C55.7919 197.055 55.719 196.883 55.679 196.789L61.1957 194.43ZM61.2611 194.582C61.2818 194.623 61.3033 194.664 61.3257 194.704L56.0877 197.631C56.0198 197.509 55.9546 197.386 55.8923 197.261L61.2611 194.582ZM61.3388 194.728C61.4131 194.864 61.4277 194.89 61.4413 194.912L56.3327 198.059C56.2184 197.873 56.1171 197.685 56.0746 197.607L61.3388 194.728ZM61.4483 194.924C61.4438 194.916 61.445 194.918 61.4577 194.938C61.4639 194.947 61.4715 194.958 61.4821 194.974C61.4874 194.982 61.4929 194.99 61.4993 194.999C61.5055 195.008 61.5126 195.019 61.5199 195.03L56.5508 198.392C56.521 198.348 56.4191 198.201 56.3257 198.048L61.4483 194.924ZM61.5299 195.045C61.5995 195.149 61.6238 195.183 61.6394 195.204L56.8532 198.822C56.7197 198.646 56.6076 198.478 56.5408 198.378L61.5299 195.045ZM61.6354 195.199C61.6346 195.197 61.6402 195.205 61.6587 195.228C61.6678 195.239 61.6784 195.251 61.6924 195.268C61.7032 195.281 61.725 195.308 61.7405 195.326L57.1187 199.152C57.0818 199.108 56.9644 198.969 56.8573 198.828L61.6354 195.199ZM61.7335 195.318C61.7541 195.343 61.7784 195.372 61.7921 195.388C61.8087 195.408 61.8205 195.423 61.8304 195.434C61.8505 195.458 61.8539 195.461 61.8481 195.455L57.4604 199.547C57.3078 199.384 57.1615 199.204 57.1257 199.161L61.7335 195.318ZM61.8607 195.469C61.8604 195.468 61.8681 195.477 61.8917 195.5C61.9032 195.512 61.9166 195.525 61.9342 195.542C61.9429 195.551 61.9519 195.56 61.9622 195.57C61.9721 195.579 61.9833 195.59 61.9946 195.601L57.7929 199.885C57.7391 199.832 57.589 199.687 57.4477 199.534L61.8607 195.469ZM61.9979 195.605C62.0196 195.626 62.042 195.648 62.0569 195.663C62.0737 195.68 62.0854 195.691 62.0956 195.701C62.1161 195.721 62.1188 195.723 62.1119 195.717L58.1035 200.182C57.9627 200.055 57.8161 199.907 57.7896 199.881L61.9979 195.605ZM62.1154 195.72C62.1334 195.736 62.1692 195.766 62.277 195.851L58.5719 200.57C58.4631 200.485 58.2841 200.344 58.1001 200.178L62.1154 195.72ZM62.281 195.854C62.3126 195.879 62.3404 195.902 62.3596 195.917C62.369 195.925 62.3788 195.933 62.3852 195.938C62.3925 195.944 62.3976 195.948 62.4019 195.951C62.4219 195.968 62.4076 195.955 62.3795 195.935L58.8418 200.781C58.7494 200.714 58.6729 200.652 58.6313 200.619C58.6159 200.606 58.5849 200.581 58.5815 200.578C58.5701 200.569 58.5672 200.567 58.5678 200.567L62.281 195.854ZM62.3944 195.946C62.4186 195.964 62.4661 195.996 62.5848 196.07L59.4089 201.161C59.2633 201.07 59.05 200.935 58.827 200.77L62.3944 195.946ZM62.5995 196.08C62.6539 196.114 62.6988 196.144 62.7291 196.165C62.7443 196.176 62.7575 196.185 62.7668 196.191C62.7743 196.196 62.7853 196.204 62.7867 196.205C62.7963 196.212 62.7873 196.205 62.7729 196.196C62.7571 196.185 62.7269 196.165 62.6867 196.141L59.5814 201.275C59.5176 201.236 59.4644 201.201 59.4257 201.175C59.3886 201.15 59.3571 201.128 59.3442 201.119C59.3247 201.106 59.3301 201.109 59.3341 201.112C59.3416 201.117 59.3635 201.132 59.3942 201.152L62.5995 196.08ZM62.6209 196.102C62.64 196.113 62.6595 196.124 62.6795 196.136L59.7132 201.351C59.6911 201.338 59.6691 201.326 59.6472 201.313L62.6209 196.102ZM62.7422 196.172C62.734 196.167 62.726 196.163 62.7181 196.158L59.8476 201.427C59.7812 201.391 59.7155 201.353 59.6505 201.314L62.7422 196.172ZM62.82 196.217C79.0246 205.885 97.6302 211 116.639 211V217C96.5548 217 76.8859 211.596 59.7457 201.369L62.82 196.217ZM116.639 211C152.045 211 183.398 193.444 202.357 166.627L207.256 170.091C187.219 198.432 154.072 217 116.639 217V211ZM205.001 165.365C206.918 165.49 208.85 165.529 210.819 165.44L211.092 171.434C208.863 171.535 206.707 171.489 204.612 171.353L205.001 165.365ZM210.803 165.441C213.545 165.3 216.216 164.967 218.959 163.94L221.064 169.559C217.497 170.894 214.132 171.278 211.109 171.433L210.803 165.441ZM218.954 163.942C220.313 163.43 221.648 162.752 222.876 161.804L226.542 166.554C224.74 167.945 222.849 168.887 221.069 169.557L218.954 163.942ZM222.884 161.798C224.087 160.876 225.187 159.635 225.943 158.257L231.204 161.142C230.022 163.297 228.355 165.164 226.534 166.56L222.884 161.798ZM225.929 158.282L226.288 157.613L231.575 160.449L231.217 161.117L225.929 158.282ZM226.176 157.845L226.509 157.073L232.02 159.445L231.687 160.217L226.176 157.845ZM226.523 157.04C226.651 156.753 226.688 156.548 226.913 155.806L232.656 157.541C232.558 157.865 232.336 158.734 232.005 159.478L226.523 157.04ZM226.861 155.998C227.069 155.098 227.175 154.263 227.169 153.558L233.168 153.502C233.181 154.804 232.99 156.127 232.707 157.349L226.861 155.998ZM227.169 153.511C227.179 151.876 226.871 150.387 226.424 148.978L232.144 147.164C232.721 148.986 233.184 151.116 233.168 153.549L227.169 153.511ZM226.433 149.006C225.499 146.155 224.136 143.82 222.589 141.504L227.579 138.172C229.258 140.685 230.955 143.54 232.135 147.136L226.433 149.006ZM222.616 141.543C221.326 139.676 219.944 137.936 218.497 136.267L223.03 132.336C224.592 134.137 226.114 136.051 227.552 138.133L222.616 141.543ZM217.864 133.531C220.116 125.059 221.322 116.168 221.322 106.997H227.322C227.322 116.696 226.046 126.105 223.663 135.072L217.864 133.531ZM221.322 106.997C221.322 101.009 220.802 95.1405 219.819 89.4248L225.733 88.4081C226.772 94.4526 227.322 100.661 227.322 106.997H221.322ZM220.687 86.7634C222.074 85.4177 223.418 84.0137 224.708 82.5172L229.253 86.4341C227.828 88.0871 226.358 89.6209 224.865 91.0694L220.687 86.7634ZM224.698 82.5291C226.517 80.3958 228.171 78.1596 229.489 75.4084L234.9 78.0009C233.274 81.3951 231.265 84.075 229.263 86.4222L224.698 82.5291ZM229.477 75.435C230.115 74.0686 230.632 72.6196 230.878 70.9745L236.812 71.8618C236.457 74.236 235.718 76.2509 234.913 77.9742L229.477 75.435ZM230.883 70.9445C231.125 69.4325 231.008 67.5893 230.39 65.9291L236.013 63.8366C237.021 66.545 237.199 69.4428 236.808 71.8919L230.883 70.9445ZM213.979 107.002C213.979 112.712 213.475 118.307 212.516 123.748L206.607 122.707C207.506 117.604 207.979 112.357 207.979 107.002H213.979ZM207.583 125.483C207.081 125.043 206.681 124.681 206.233 124.297L210.137 119.741C210.614 120.149 211.124 120.608 211.54 120.973L207.583 125.483ZM206.23 124.295C201.494 120.226 196.549 116.463 191.475 112.871L194.941 107.974C200.126 111.644 205.226 115.523 210.14 119.743L206.23 124.295ZM191.686 107.838C194.364 106.261 197.007 104.642 199.605 102.95L202.88 107.977C200.19 109.73 197.466 111.397 194.73 113.008L191.686 107.838ZM199.611 102.946C202.744 100.916 205.83 98.8036 208.856 96.5813L212.407 101.418C209.275 103.718 206.092 105.896 202.874 107.981L199.611 102.946ZM213.621 98.7436C213.854 101.463 213.979 104.217 213.979 107.002H207.979C207.979 104.397 207.862 101.814 207.643 99.2553L213.621 98.7436ZM143.506 151.933C139.416 149.548 135.297 147.279 131.144 145.103L133.929 139.788C138.156 142.003 142.354 144.315 146.528 146.749L143.506 151.933ZM131.115 145.087C129.606 144.275 128.077 143.492 126.527 142.71L129.229 137.353C130.798 138.145 132.381 138.955 133.958 139.804L131.115 145.087ZM126.891 137.198C127.248 137.074 127.351 137.043 127.633 136.944L129.634 142.6C129.414 142.678 129.01 142.814 128.864 142.865L126.891 137.198ZM127.635 136.943C131.613 135.539 135.575 134.07 139.529 132.559L141.671 138.163C137.68 139.689 133.669 141.176 129.632 142.601L127.635 136.943ZM143.461 134.457L147.878 148.437L142.157 150.245L137.74 136.265L143.461 134.457ZM125.206 130.394C120.929 131.965 116.63 133.48 112.319 134.948L110.385 129.269C114.656 127.814 118.91 126.315 123.137 124.762L125.206 130.394ZM110.148 134.856C107.781 133.819 105.364 132.72 103.093 131.671L105.609 126.224C107.859 127.264 110.237 128.345 112.556 129.361L110.148 134.856ZM103.071 131.661C99.788 130.113 96.5305 128.519 93.2918 126.904L95.9694 121.535C99.1821 123.137 102.398 124.71 105.63 126.234L103.071 131.661ZM91.7855 123.268L105.458 82.3934L111.148 84.2967L97.4757 125.171L91.7855 123.268ZM107.28 80.5247C108.947 79.9205 110.619 79.3386 112.267 78.7636L114.244 84.4285C112.585 85.0075 110.95 85.5762 109.325 86.1654L107.28 80.5247ZM114.451 78.8445C117.423 80.1357 120.394 81.4503 123.353 82.8071L120.851 88.2609C117.941 86.9261 115.008 85.6285 112.06 84.3475L114.451 78.8445ZM123.349 82.8056C124.434 83.3017 125.536 83.819 126.591 84.3074L124.071 89.7522C122.972 89.2437 121.926 88.7522 120.855 88.2625L123.349 82.8056ZM128.192 86.126L139.48 121.855L133.759 123.662L122.47 87.9337L128.192 86.126ZM137.733 125.544C133.584 127.203 129.416 128.824 125.22 130.389L123.123 124.767C127.267 123.221 131.392 121.617 135.506 119.973L137.733 125.544ZM102.923 138.062C98.8078 139.377 94.677 140.619 90.5415 141.813L88.8772 136.049C92.9705 134.867 97.0463 133.641 101.098 132.347L102.923 138.062ZM86.8643 137.979L89.6365 129.692L95.3266 131.596L92.5544 139.883L86.8643 137.979ZM93.7981 127.949C96.788 129.409 99.7799 130.849 102.789 132.255L100.25 137.691C97.1995 136.266 94.1747 134.81 91.165 133.34L93.7981 127.949ZM102.802 132.26L103.293 132.492L100.728 137.917L100.238 137.685L102.802 132.26ZM19.3033 107.002C19.3033 100.576 19.943 94.2958 21.1524 88.2162L27.0371 89.3868C25.9031 95.0872 25.3033 100.975 25.3033 107.002H19.3033ZM26.0098 86.4922C32.5121 91.8845 39.3911 96.6944 46.4347 101.333L43.1349 106.344C36.0089 101.651 28.9246 96.7041 22.1798 91.1108L26.0098 86.4922ZM46.2129 106.477C38.7876 110.496 31.5185 114.721 24.5662 119.548L21.1444 114.619C28.3514 109.615 35.8341 105.272 43.3567 101.2L46.2129 106.477ZM19.8724 117.403C19.5056 113.978 19.3033 110.51 19.3033 107.002H25.3033C25.3033 110.279 25.4923 113.534 25.8382 116.764L19.8724 117.403ZM49.3605 101.451C45.1037 98.5683 40.9341 95.5564 36.8971 92.396L40.5957 87.6715C44.5113 90.7368 48.5679 93.6678 52.7248 96.4829L49.3605 101.451ZM36.9011 92.3991C32.8711 89.2551 28.9326 85.9706 25.2173 82.4977L29.3145 78.1145C32.8664 81.4346 36.6614 84.6021 40.5917 87.6684L36.9011 92.3991ZM25.2197 82.5C24.9275 82.2275 24.6311 81.9422 24.3732 81.6966L28.5108 77.3515C28.8011 77.6279 29.0502 77.8679 29.3121 78.1123L25.2197 82.5ZM23.5759 78.638C26.1117 70.4354 29.7181 62.6988 34.227 55.5841L39.295 58.7959C35.0646 65.4712 31.6842 72.7247 29.3082 80.4101L23.5759 78.638ZM37.1894 54.2207C46.9321 55.6263 56.6728 58.1027 66.1918 60.9563L64.4688 66.7036C55.0957 63.8937 45.6679 61.506 36.3327 60.1592L37.1894 54.2207ZM66.1819 60.9534C75.9518 63.8457 85.6017 67.2335 95.114 70.9395L92.9358 76.5302C83.5483 72.8727 74.0588 69.5427 64.4787 66.7066L66.1819 60.9534ZM95.0943 70.9319C96.1146 71.3212 97.182 71.75 98.1461 72.126L95.9664 77.716C94.9085 77.3035 93.9616 76.9216 92.9555 76.5378L95.0943 70.9319ZM99.9012 75.8729L97.7999 82.1529L92.11 80.249L94.2113 73.969L99.9012 75.8729ZM96.0229 84.0044C89.7096 86.4092 83.4455 88.9253 77.2509 91.5994L74.8729 86.0908C81.1609 83.3763 87.5072 80.8276 93.8871 78.3974L96.0229 84.0044ZM77.2548 91.5977C69.3185 95.0369 61.464 98.6438 53.7532 102.545L51.0447 97.1908C58.8887 93.2225 66.8558 89.5649 74.8691 86.0924L77.2548 91.5977ZM50.7183 102.353C50.5093 102.211 49.6608 101.655 49.3523 101.445L52.7331 96.4881C53.3213 96.8893 53.3892 96.9158 54.0796 97.3827L50.7183 102.353ZM110.768 66.5182L113.616 58.0044L119.306 59.9079L116.458 68.4216L110.768 66.5182ZM119.322 58.0522L122.861 69.2521L117.14 71.0599L113.601 59.86L119.322 58.0522ZM118.818 72.9134C116.707 72.0087 114.591 71.1177 112.47 70.2437L114.756 64.6961C116.906 65.5819 119.048 66.4839 121.182 67.3986L118.818 72.9134ZM94.9895 90.5578L85.485 118.975L79.7948 117.072L89.2993 88.6546L94.9895 90.5578ZM81.2198 120.666C73.3007 116.41 65.5269 111.892 57.9534 107.081L61.1709 102.016C68.611 106.743 76.2581 111.188 84.06 115.381L81.2198 120.666ZM58.1833 101.884C68.8669 96.3551 79.8519 91.3738 91.0127 86.8278L93.2761 92.3846C82.2584 96.8722 71.441 101.779 60.9411 107.213L58.1833 101.884ZM143.178 92.2919C145.75 93.5872 148.318 94.9037 150.871 96.2551L148.065 101.558C145.556 100.231 143.026 98.9334 140.479 97.6506L143.178 92.2919ZM150.872 96.2553C155.38 98.6416 159.858 101.095 164.282 103.642L161.288 108.842C156.938 106.337 152.523 103.918 148.065 101.558L150.872 96.2553ZM164.265 103.632C165.962 104.595 167.641 105.577 169.301 106.548L166.269 111.726C164.606 110.752 162.961 109.79 161.305 108.851L164.265 103.632ZM169.077 111.844C162.842 114.822 156.533 117.664 150.17 120.391L147.806 114.876C154.102 112.178 160.337 109.369 166.492 106.43L169.077 111.844ZM146.127 118.537L138.968 95.875L144.689 94.0675L151.849 116.73L146.127 118.537ZM209.147 89.045C200.876 95.0552 191.814 100.225 182.722 105.06L179.905 99.7625C188.915 94.9709 197.688 89.955 205.62 84.1911L209.147 89.045ZM179.69 104.934C175.774 102.415 171.829 99.9654 167.839 97.6115L170.888 92.4438C174.956 94.8437 178.968 97.3354 182.936 99.8882L179.69 104.934ZM167.849 97.6173C163.372 94.9991 158.839 92.4761 154.266 90.0161L157.108 84.7321C161.731 87.2189 166.328 89.777 170.878 92.4379L167.849 97.6173ZM154.273 90.0201C147.924 86.6278 141.512 83.3671 135.03 80.2619L137.622 74.8507C144.189 77.9968 150.68 81.2976 157.101 84.7281L154.273 90.0201ZM133.465 78.4601L132.527 75.4908L138.248 73.6832L139.186 76.6525L133.465 78.4601ZM134.568 71.7011C145.585 68.5729 156.742 65.938 167.998 63.9546L169.039 69.8636C158.009 71.8071 147.053 74.3933 136.207 77.4729L134.568 71.7011ZM168.006 63.9532C178.347 62.1599 188.855 60.8263 199.24 60.5754L199.385 66.5737C189.4 66.8149 179.207 68.1004 169.031 69.865L168.006 63.9532ZM199.24 60.5754C199.561 60.5677 199.901 60.5651 200.175 60.5612L200.259 66.5606C199.928 66.5653 199.666 66.5669 199.384 66.5737L199.24 60.5754ZM202.869 62.159C206.654 69.3189 209.568 77.0042 211.457 85.081L205.615 86.4475C203.845 78.8824 201.115 71.6792 197.565 64.9628L202.869 62.159ZM210.329 88.1692C209.952 88.4504 209.555 88.7478 209.152 89.0417L205.616 84.1944C205.987 83.9237 206.353 83.6497 206.743 83.3593L210.329 88.1692ZM116.641 10.2625C150.079 10.2625 179.63 27.1086 197.157 52.6975L192.207 56.0881C175.753 32.0654 148.02 16.2625 116.641 16.2625V10.2625ZM194.971 57.3788C185.693 58.278 176.615 59.9583 167.58 61.969L166.277 56.1123C175.443 54.0723 184.782 52.3382 194.393 51.4068L194.971 57.3788ZM167.583 61.9685C157.231 64.2818 147.017 67.0584 136.878 70.1031L135.152 64.3566C145.39 61.2824 155.747 58.4654 166.274 56.1129L167.583 61.9685ZM136.864 70.1072C135.959 70.3744 135.179 70.628 134.196 70.9268L132.452 65.1858C133.265 64.9388 134.271 64.6167 135.166 64.3525L136.864 70.1072ZM130.463 68.9601L120.148 36.3098L125.869 34.5023L136.184 67.1526L130.463 68.9601ZM120.148 36.3103C119.675 34.8134 118.278 33.7745 116.673 33.7615L116.721 27.7617C120.907 27.7956 124.607 30.5086 125.869 34.5018L120.148 36.3103ZM116.681 33.7615C115.065 33.7529 113.649 34.7726 113.154 36.2526L107.464 34.3494C108.795 30.37 112.549 27.7394 116.713 27.7616L116.681 33.7615ZM113.154 36.2526L104.034 63.5191L98.3435 61.6158L107.464 34.3493L113.154 36.2526ZM100.124 65.3723C99.2117 65.026 98.458 64.7269 97.6073 64.4103L99.7002 58.7871C100.543 59.1009 101.472 59.4664 102.253 59.7625L100.124 65.3723ZM97.6304 64.4188C87.8638 60.8747 77.9769 57.6657 67.9182 54.9437L69.4854 49.1521C79.734 51.9254 89.7827 55.1882 99.6771 58.7786L97.6304 64.4188ZM67.94 54.9496C60.0122 52.8684 52.0295 51.0727 43.8691 49.8685L44.7449 43.9328C53.1938 45.1795 61.4044 47.0305 69.4635 49.1462L67.94 54.9496ZM42.0131 44.9673C59.8767 23.7721 86.7005 10.2625 116.641 10.2625V16.2625C88.5428 16.2625 63.3726 28.9344 46.6009 48.834L42.0131 44.9673ZM11.3772 65.0303C10.8899 63.8852 10.5734 62.7385 10.4328 61.7016C10.3109 60.802 10.2538 59.5209 10.743 58.3906L16.2493 60.7739C16.3635 60.5102 16.3549 60.3655 16.3499 60.458C16.3465 60.5209 16.3474 60.6662 16.3784 60.8954C16.4406 61.354 16.6011 61.983 16.8981 62.6809L11.3772 65.0303ZM10.6703 58.5749C10.9955 57.6627 11.4873 56.9701 12.2358 56.3208L16.1673 60.8534C16.1001 60.9116 16.1447 60.8833 16.2144 60.7833C16.2485 60.7345 16.2766 60.6858 16.2978 60.643C16.3178 60.6026 16.3252 60.5805 16.322 60.5896L10.6703 58.5749ZM12.1997 56.3527C12.895 55.7297 13.824 55.1849 14.8676 54.7722L17.0741 60.3518C16.8159 60.4539 16.6093 60.5582 16.4554 60.6492C16.2966 60.743 16.2185 60.808 16.2034 60.8215L12.1997 56.3527ZM14.831 54.787C16.7945 53.9805 19.2461 53.5635 21.5608 53.3798L22.0357 59.3609C19.9927 59.5231 18.2459 59.8707 17.1107 60.337L14.831 54.787ZM24.435 57.8013C22.4618 61.437 20.699 65.1992 19.1657 69.0739L13.5867 66.8662C15.21 62.764 17.0753 58.7834 19.1615 54.9393L24.435 57.8013ZM13.8681 69.6162C12.8969 68.1364 12.0069 66.5686 11.3615 64.9927L16.9138 62.7185C17.3663 63.8232 18.0423 65.0411 18.8842 66.3239L13.8681 69.6162ZM11.623 150.868C10.5403 150.414 9.51967 149.84 8.71471 149.185L12.4996 144.53C12.7517 144.735 13.2408 145.04 13.944 145.335L11.623 150.868ZM8.73742 149.204C7.76961 148.432 7.28732 147.669 6.96089 147.025L12.3124 144.312C12.3392 144.365 12.3534 144.39 12.3607 144.402C12.3641 144.407 12.366 144.41 12.3666 144.411C12.367 144.412 12.3672 144.412 12.3672 144.412C12.3672 144.412 12.3673 144.412 12.3673 144.412C12.3673 144.412 12.3675 144.412 12.3679 144.413C12.3682 144.413 12.3689 144.414 12.37 144.415C12.372 144.418 12.3763 144.422 12.3834 144.43C12.3972 144.444 12.4261 144.471 12.4769 144.512L8.73742 149.204ZM6.80227 146.652C6.55606 145.942 6.33686 144.999 6.51583 143.707L12.4591 144.53C12.4514 144.585 12.4505 144.616 12.4504 144.627C12.4504 144.637 12.4509 144.635 12.4496 144.625C12.4484 144.615 12.4468 144.609 12.4477 144.613C12.4491 144.618 12.4544 144.638 12.471 144.686L6.80227 146.652ZM6.51247 143.732C6.65137 142.663 7.02506 141.512 7.5286 140.425L12.9722 142.949C12.6506 143.643 12.5026 144.196 12.4625 144.505L6.51247 143.732ZM7.53015 140.422C8.36885 138.618 9.58899 136.827 10.9109 135.184L15.5862 138.945C14.4393 140.37 13.5334 141.742 12.9707 142.952L7.53015 140.422ZM16.1271 136.22C17.3295 140.317 18.7945 144.334 20.5065 148.259L15.007 150.657C13.1966 146.507 11.6448 142.254 10.3699 137.909L16.1271 136.22ZM17.2485 152.415C15.2942 152.079 13.339 151.585 11.6271 150.87L13.9399 145.333C15.0991 145.818 16.5818 146.212 18.265 146.501L17.2485 152.415ZM65.0489 148.305C54.8546 150.506 44.4689 152.274 34.1437 152.946L33.7539 146.959C43.6754 146.313 53.7461 144.607 63.7824 142.44L65.0489 148.305ZM34.1342 152.947C33.7286 152.972 33.3193 152.992 32.9464 153.011L32.635 147.019C33.0344 146.999 33.3966 146.981 33.7633 146.958L34.1342 152.947ZM30.1312 151.404C26.1217 143.722 23.1987 135.573 21.4075 127.118L27.2773 125.874C28.9557 133.797 31.6938 141.43 35.4502 148.627L30.1312 151.404ZM22.4628 124.158C22.6478 124.009 22.8333 123.861 23.0195 123.714L26.7462 128.416C26.571 128.555 26.3962 128.694 26.222 128.834L22.4628 124.158ZM23.0397 123.698C31.2452 117.308 40.211 111.665 49.4038 106.572L52.3116 111.821C43.3061 116.81 34.6193 122.285 26.726 128.432L23.0397 123.698ZM49.3994 106.575C49.73 106.391 50.4476 106.011 50.677 105.885L53.566 111.143C52.9557 111.479 52.8209 111.537 52.316 111.818L49.3994 106.575ZM53.6999 105.963C60.722 110.307 67.9053 114.388 75.1654 118.364L72.2835 123.626C64.9726 119.623 57.6888 115.486 50.5431 111.065L53.6999 105.963ZM75.1599 118.361C77.3737 119.567 79.5995 120.752 81.8356 121.921L79.0558 127.238C76.7935 126.055 74.537 124.854 72.2891 123.63L75.1599 118.361ZM83.2908 125.531L77.1057 144.022L71.4156 142.119L77.6006 123.628L83.2908 125.531ZM74.9784 145.984C71.6892 146.794 68.381 147.581 65.0532 148.305L63.778 142.442C67.0329 141.734 70.2835 140.961 73.5429 140.158L74.9784 145.984ZM116.641 203.742C100.762 203.742 85.1864 199.894 71.2572 192.59L74.0436 187.276C87.1117 194.128 101.731 197.742 116.641 197.742V203.742ZM69.8053 188.981L82.2397 151.806L87.9298 153.71L75.4954 190.884L69.8053 188.981ZM84.3784 149.842C88.6837 148.799 92.9713 147.685 97.2444 146.515L98.8288 152.302C94.5057 153.486 90.1604 154.615 85.7911 155.674L84.3784 149.842ZM97.2462 146.515C103.966 144.679 110.631 142.635 117.262 140.458L119.134 146.159C112.429 148.36 105.665 150.435 98.827 152.303L97.2462 146.515ZM119.664 140.691C123.169 142.655 126.642 144.721 130.016 146.95L126.71 151.956C123.489 149.829 120.148 147.84 116.731 145.926L119.664 140.691ZM130.017 146.95C134.295 149.775 138.49 152.785 142.442 156.08L138.6 160.688C134.868 157.576 130.864 154.7 126.71 151.956L130.017 146.95ZM142.48 156.112C144.329 157.707 146.338 159.396 148.18 161.224L143.954 165.483C142.3 163.842 140.498 162.325 138.562 160.656L142.48 156.112ZM148.154 161.198C149.076 162.092 149.96 162.991 150.816 163.896L146.458 168.021C145.653 167.169 144.831 166.332 143.98 165.509L148.154 161.198ZM150.887 163.974C151.202 164.331 151.717 164.891 152.11 165.356L147.528 169.229C147.174 168.811 146.86 168.478 146.388 167.943L150.887 163.974ZM152.092 165.335C152.38 165.669 153.026 166.413 153.37 166.986L148.223 170.07C148.249 170.114 148.252 170.113 148.207 170.052C148.169 170 148.114 169.929 148.042 169.84C147.897 169.66 147.723 169.456 147.545 169.25L152.092 165.335ZM153.366 166.98C153.598 167.365 153.907 167.727 154.261 168.011L150.506 172.69C149.568 171.937 148.801 171.029 148.227 170.076L153.366 166.98ZM154.262 168.011C154.934 168.551 155.739 168.827 156.566 168.852L156.383 174.85C154.327 174.787 152.251 174.091 150.506 172.69L154.262 168.011ZM156.728 168.862C157.195 168.901 157.672 168.855 158.144 168.708L159.928 174.436C158.692 174.822 157.434 174.943 156.221 174.84L156.728 168.862ZM158.143 168.708C160.088 168.102 161.142 166.059 160.543 164.164L166.264 162.356C167.874 167.448 165.017 172.849 159.929 174.436L158.143 168.708ZM160.543 164.164L150.159 131.297L155.88 129.489L166.265 162.357L160.543 164.164ZM151.859 127.626C153.698 126.855 155.507 126.098 157.302 125.311L159.71 130.807C157.863 131.616 156.006 132.393 154.18 133.159L151.859 127.626ZM157.306 125.31C162.167 123.187 166.983 120.937 171.774 118.598L174.406 123.99C169.555 126.358 164.661 128.646 159.707 130.809L157.306 125.31ZM171.753 118.608C174.364 117.308 176.961 115.966 179.553 114.593L182.36 119.896C179.735 121.286 177.092 122.652 174.428 123.979L171.753 118.608ZM182.59 114.728C189.411 119.155 196.045 123.846 202.345 128.838L198.619 133.541C192.49 128.685 186.013 124.102 179.323 119.761L182.59 114.728ZM202.358 128.849C204.393 130.479 206.388 132.158 208.317 133.89L204.31 138.355C202.475 136.709 200.567 135.102 198.606 133.531L202.358 128.849ZM209.163 137.062C206.448 145.298 202.649 153.047 197.937 160.144L192.938 156.825C197.359 150.166 200.92 142.901 203.465 135.183L209.163 137.062ZM195.099 161.466C192.704 161.194 190.302 160.857 187.907 160.469L188.866 154.546C191.178 154.921 193.485 155.244 195.775 155.504L195.099 161.466ZM187.892 160.467C182.874 159.628 177.825 158.645 172.794 157.499L174.126 151.649C179.035 152.766 183.969 153.728 188.882 154.549L187.892 160.467ZM172.751 157.489L172.721 157.482L174.14 151.652L174.17 151.659L172.751 157.489ZM172.775 157.494C172.592 157.453 172.423 157.564 172.374 157.712L166.674 155.84C167.704 152.704 170.944 150.935 174.086 151.639L172.775 157.494ZM172.375 157.711C172.326 157.861 172.402 158.045 172.589 158.106L170.739 163.813C167.42 162.738 165.58 159.176 166.673 155.842L172.375 157.711ZM172.588 158.105C177.533 159.707 182.448 161.227 187.464 162.431L186.064 168.265C180.814 167.005 175.719 165.426 170.739 163.813L172.588 158.105ZM187.471 162.432C188.475 162.676 189.484 162.911 190.496 163.138L189.185 168.993C188.138 168.758 187.095 168.515 186.057 168.263L187.471 162.432ZM192.162 167.966C174.303 189.776 147.084 203.742 116.641 203.742V197.742C145.21 197.742 170.752 184.642 187.519 164.165L192.162 167.966ZM221.772 150.46C222.163 151.486 222.407 152.519 222.459 153.426L216.469 153.767C216.46 153.612 216.392 153.191 216.166 152.599L221.772 150.46ZM222.444 153.25C222.487 153.618 222.48 153.925 222.466 154.147C222.46 154.243 222.451 154.339 222.449 154.369C222.445 154.415 222.447 154.404 222.448 154.376L216.452 154.151C216.456 154.028 216.466 153.919 216.47 153.866C216.473 153.831 216.474 153.819 216.476 153.8C216.477 153.785 216.477 153.779 216.477 153.777C216.477 153.776 216.476 153.796 216.476 153.829C216.477 153.863 216.479 153.902 216.484 153.944L222.444 153.25ZM222.14 155.591C222.292 155.283 222.352 155.019 222.377 154.89C222.39 154.822 222.397 154.769 222.4 154.747C222.402 154.73 222.405 154.71 222.401 154.737C222.4 154.751 222.394 154.801 222.385 154.861C222.376 154.922 222.361 155.016 222.335 155.127C222.285 155.342 222.18 155.703 221.936 156.094L216.844 152.922C216.731 153.103 216.653 153.274 216.598 153.419C216.543 153.562 216.51 153.687 216.489 153.778C216.468 153.869 216.456 153.942 216.45 153.982C216.447 154.003 216.445 154.019 216.443 154.029C216.442 154.038 216.442 154.043 216.442 154.041C216.442 154.04 216.442 154.039 216.443 154.035C216.443 154.032 216.444 154.026 216.444 154.02C216.446 154.009 216.448 153.989 216.451 153.967C216.457 153.922 216.467 153.848 216.484 153.759C216.502 153.669 216.528 153.55 216.57 153.413C216.612 153.275 216.672 153.113 216.759 152.937L222.14 155.591ZM222.198 155.564C222.262 155.395 222.302 155.23 222.326 155.075L216.394 154.177C216.43 153.939 216.491 153.695 216.582 153.452L222.198 155.564ZM222.054 155.945L221.965 156.128L216.576 153.49L216.665 153.307L222.054 155.945ZM221.993 156.069C221.584 156.951 221.016 157.723 220.218 158.432L216.235 153.945C216.346 153.846 216.408 153.774 216.445 153.725C216.48 153.677 216.513 153.624 216.548 153.548L221.993 156.069ZM220.22 158.43C219.435 159.129 218.466 159.702 217.442 160.152L215.028 154.659C215.642 154.389 216.033 154.124 216.233 153.947L220.22 158.43ZM217.443 160.152C215.606 160.961 213.406 161.46 211.242 161.742L210.466 155.792C212.314 155.551 213.9 155.156 215.027 154.66L217.443 160.152ZM208.235 157.304C210.275 153.651 212.101 149.863 213.695 145.96L219.25 148.227C217.563 152.358 215.632 156.366 213.473 160.23L208.235 157.304ZM218.926 145.367C220.059 146.977 221.126 148.749 221.776 150.47L216.163 152.589C215.769 151.546 215.023 150.246 214.019 148.82L218.926 145.367ZM225.984 70.3554C225.799 71.2816 225.411 72.3138 224.892 73.314L219.568 70.5474C219.894 69.9186 220.051 69.426 220.099 69.1836L225.984 70.3554ZM224.891 73.3151C224.131 74.7768 223.088 76.2531 221.936 77.6396L217.321 73.8058C218.294 72.6339 219.063 71.5166 219.568 70.5463L224.891 73.3151ZM216.761 76.6064C215.636 72.954 214.311 69.3861 212.802 65.9134L218.305 63.5225C219.901 67.1955 221.303 70.9715 222.495 74.839L216.761 76.6064ZM216.18 61.7841C218.091 62.1922 219.994 62.758 221.627 63.529L219.066 68.9549C217.99 68.4471 216.568 68.0023 214.927 67.6518L216.18 61.7841ZM221.628 63.5294C222.672 64.0227 223.651 64.6417 224.387 65.3261L220.301 69.7196C220.136 69.5661 219.721 69.2641 219.065 68.9545L221.628 63.5294ZM224.363 65.3039C225.302 66.1579 225.65 66.9532 225.849 67.4677L220.254 69.6351C220.229 69.5704 220.228 69.5704 220.234 69.5818C220.242 69.6008 220.259 69.6348 220.284 69.6742C220.308 69.7133 220.33 69.7416 220.343 69.7574C220.355 69.7721 220.353 69.7666 220.325 69.7418L224.363 65.3039ZM226.005 68.0245C226.087 68.4839 226.214 69.2387 225.98 70.3763L220.104 69.1627C220.114 69.1133 220.115 69.0925 220.115 69.0951C220.115 69.0994 220.114 69.1174 220.114 69.1448C220.116 69.1958 220.127 69.2401 220.098 69.0783L226.005 68.0245Z" fill="#F5F5F5" mask="url(#path-1-inside-1_12_2)"/>
</svg>
