<svg width="557" height="510" viewBox="0 0 557 510" fill="none" xmlns="http://www.w3.org/2000/svg">
<g filter="url(#filter0_d_974_4622)">
<path d="M551.127 151.907C549.175 146.81 545.775 142.428 542.164 139.436C538.54 136.385 534.771 134.331 531.128 132.749C523.82 129.662 516.828 128.211 510.031 127.26C505.591 126.668 501.22 126.316 496.891 126.115C453.269 50.819 371.335 0 277.659 0C192.313 0 116.726 42.1879 70.9639 106.627C65.0485 106.591 59.0349 106.837 52.8654 107.555C46.083 108.423 39.0657 109.734 31.6789 113.092C28.0186 114.78 24.2003 117.098 20.7749 120.537C19.0537 122.204 17.514 124.262 16.1964 126.428C14.9578 128.658 13.8857 131.036 13.3049 133.486C11.9915 138.405 12.2307 143.17 12.9952 147.297C13.7854 151.453 15.1372 155.091 16.679 158.42C19.799 165.063 23.6792 170.59 27.7495 175.742C29.8594 178.37 32.0334 180.89 34.2543 183.327C28.2407 204.718 25.0139 227.249 25.0139 250.517C25.0139 266.115 26.4832 281.479 29.2786 296.503C26.3871 299.201 23.5511 302.013 20.807 305.01C16.2711 310.009 11.9296 315.5 8.42735 322.342C6.70613 325.781 5.207 329.63 4.43821 334.088C3.6438 338.494 3.87442 343.74 5.58498 348.627C7.34678 353.495 10.5009 357.749 13.9327 360.718C17.373 363.744 21.0056 365.847 24.5505 367.49C31.6639 370.713 38.5766 372.369 45.3249 373.517C49.7283 374.243 54.0783 374.738 58.3942 375.09C63.5024 383.888 69.1743 392.428 75.4058 400.668C80.5908 407.527 90.4035 408.92 97.3226 403.774C104.242 398.631 105.643 388.901 100.455 382.042C98.7321 379.763 97.0642 377.453 95.4369 375.124C117.484 373.802 139.096 370.707 160.489 366.836C163.003 366.381 165.51 365.902 168.015 365.419L140.748 446.763L140.744 446.773L140.654 447.038C140.61 447.171 140.584 447.305 140.541 447.438C140.439 447.773 140.338 448.109 140.259 448.448C140.214 448.639 140.185 448.827 140.148 449.018C140.089 449.325 140.029 449.63 139.99 449.937C139.958 450.172 139.943 450.407 139.924 450.642C139.903 450.902 139.877 451.163 139.869 451.421C139.86 451.692 139.866 451.961 139.871 452.23C139.875 452.457 139.877 452.683 139.892 452.908C139.911 453.194 139.943 453.475 139.977 453.759C140.003 453.971 140.027 454.183 140.059 454.394C140.103 454.674 140.163 454.947 140.223 455.222C140.27 455.438 140.315 455.652 140.373 455.866C140.441 456.122 140.52 456.372 140.601 456.624C140.674 456.855 140.746 457.084 140.832 457.31C140.915 457.535 141.009 457.753 141.103 457.973C141.208 458.219 141.312 458.464 141.43 458.704C141.526 458.898 141.63 459.089 141.735 459.28C141.872 459.529 142.008 459.781 142.158 460.025C142.269 460.205 142.388 460.378 142.506 460.552C142.666 460.791 142.826 461.029 143.001 461.259C143.138 461.439 143.285 461.613 143.431 461.789C143.604 461.996 143.772 462.204 143.958 462.403C144.137 462.598 144.33 462.782 144.52 462.968C144.686 463.131 144.849 463.296 145.022 463.451C145.259 463.665 145.511 463.864 145.765 464.063C145.91 464.177 146.051 464.298 146.202 464.408C146.493 464.622 146.798 464.819 147.108 465.012C147.219 465.082 147.319 465.16 147.43 465.228C147.477 465.255 147.527 465.283 147.576 465.31C147.642 465.351 147.71 465.389 147.779 465.427C186.895 488.716 231.794 501.029 277.652 501.029C363.099 501.029 438.762 458.742 484.507 394.171C489.214 394.476 494.01 394.578 498.935 394.353C505.698 394.008 512.779 393.17 520.181 390.404C523.863 389.019 527.647 387.124 531.202 384.386C534.75 381.671 537.995 378.033 540.268 373.898L541.109 372.333L541.889 370.525C542.427 369.318 542.732 368.062 543.11 366.812C543.685 364.329 544.033 361.802 544.011 359.452C544.041 354.692 543.138 350.454 541.936 346.672C539.456 339.126 535.866 333.05 532.082 327.396C528.881 322.774 525.475 318.496 521.945 314.435C527.382 294.02 530.293 272.596 530.293 250.508C530.293 236.081 529.039 221.942 526.667 208.176C530.045 204.905 533.346 201.466 536.531 197.779C541.013 192.534 545.312 186.778 548.765 179.585C550.458 175.968 551.932 171.913 552.637 167.208C553.38 162.571 553.034 157.021 551.127 151.907ZM498.99 250.519C498.99 263.472 497.843 276.164 495.663 288.508C494.587 287.565 493.519 286.606 492.434 285.679C481.114 275.974 469.33 267.027 457.296 258.527C463.647 254.796 469.943 250.951 476.147 246.917C483.597 242.099 490.95 237.077 498.174 231.783C498.704 237.962 498.99 244.208 498.99 250.519ZM344.233 349.645C334.538 344.004 324.781 338.643 314.951 333.501C311.331 331.557 307.682 329.692 304.022 327.85C304.611 327.644 305.205 327.449 305.794 327.242C315.197 323.93 324.55 320.47 333.87 316.915L344.233 349.645ZM295.326 298.693C285.349 302.35 275.316 305.878 265.249 309.3C259.752 306.896 254.127 304.345 248.823 301.899C241.18 298.303 233.586 294.596 226.018 290.831L258.095 195.132C261.956 193.735 265.836 192.388 269.714 191.037C276.659 194.048 283.585 197.106 290.47 200.257C293 201.411 295.52 202.592 298.046 203.759L324.531 287.409C314.838 291.275 305.109 295.051 295.326 298.693ZM243.332 316.548C233.752 319.602 224.125 322.492 214.473 325.273L220.976 305.872C228.014 309.302 235.072 312.692 242.181 316.006L243.332 316.548ZM56.3271 250.519C56.3271 235.942 57.7813 221.697 60.5297 207.907C76.0699 220.767 92.4493 232.189 109.072 243.112C91.5375 252.583 74.2312 262.614 57.6212 274.121C56.7862 266.333 56.3271 258.462 56.3271 250.519ZM123.754 231.706C113.884 225.036 104.233 218.08 94.9052 210.791C85.5666 203.522 76.4949 195.969 67.9699 188.017C67.3207 187.412 66.68 186.798 66.0373 186.186C71.7989 167.587 79.995 150.039 90.2476 133.897C112.628 137.118 135.113 142.812 157.275 149.442C179.974 156.148 202.426 164.013 224.597 172.631C226.974 173.537 229.336 174.486 231.709 175.409L226.78 190.111C211.889 195.772 197.096 201.701 182.453 208.009C163.744 216.1 145.184 224.604 126.936 233.816C125.881 233.104 124.807 232.422 123.754 231.706ZM270.554 157.965L277.236 138.032L285.539 164.254C280.559 162.124 275.564 160.025 270.554 157.965ZM220.185 209.792L197.886 276.323C179.444 266.434 161.354 255.942 143.742 244.776C168.591 231.942 194.168 220.367 220.185 209.792ZM336.751 222.353C342.756 225.371 348.737 228.431 354.676 231.567C365.194 237.123 375.626 242.826 385.919 248.74C389.852 250.966 393.752 253.242 397.649 255.518C383.115 262.445 368.399 269.06 353.549 275.411L336.751 222.353ZM490.555 202.796C471.547 216.579 450.625 228.503 429.389 239.772C420.14 233.835 410.806 228.049 401.354 222.485C390.764 216.306 380.055 210.357 369.266 204.566C354.285 196.578 339.149 188.898 323.841 181.58L321.64 174.628C347.287 167.361 373.227 161.249 399.37 156.652C423.438 152.487 447.723 149.421 471.617 148.845C472.324 148.828 473.031 148.823 473.74 148.813C482.344 165.057 488.966 182.486 493.258 200.797C492.359 201.466 491.463 202.135 490.555 202.796ZM277.659 31.0517C353.694 31.0517 420.892 69.2714 460.754 127.349C438.596 129.492 416.991 133.488 395.64 138.231C371.147 143.693 347.016 150.24 323.113 157.404C321.001 158.026 318.906 158.7 316.798 159.339L292.597 82.8957C290.561 76.4689 284.582 72.0771 277.789 72.0221C271.009 71.9861 264.944 76.2593 262.802 82.6501L241.404 146.488C239.418 145.736 237.445 144.959 235.457 144.22C212.393 135.868 189.007 128.292 165.185 121.859C146.431 116.946 127.436 112.677 107.951 109.808C148.581 61.7012 209.574 31.0517 277.659 31.0517ZM37.1693 149.503C35.3285 145.188 34.9313 141.188 35.6638 139.498C35.9884 138.591 36.4048 137.96 37.3188 137.168C38.1965 136.383 39.6102 135.502 41.4703 134.767C45.1049 133.279 50.0294 132.383 55.1418 131.978C50.3796 140.734 46.1235 149.798 42.4205 159.136C40.2936 155.902 38.457 152.641 37.1693 149.503ZM33.9917 346.744C31.8967 345.868 30.1264 344.839 28.8856 343.833C27.6065 342.814 27.0512 341.919 26.6092 341.048C26.291 340.133 26.0305 339.068 26.259 337.419C26.4682 335.805 27.0811 333.81 28.0485 331.727C29.6929 328.199 32.1872 324.497 35.0829 320.904C37.9894 330.787 41.5279 340.468 45.6601 349.921C41.3934 349.188 37.3594 348.148 33.9917 346.744ZM155.129 340.356C131.397 345.47 107.4 349.535 83.6489 351.079C82.7434 351.134 81.8379 351.179 80.9325 351.225C71.8224 333.808 65.1809 315.333 61.1106 296.16C61.5334 295.824 61.9542 295.485 62.3791 295.15C81.2635 280.476 101.972 267.461 123.32 255.658C124.301 255.114 125.3 254.599 126.285 254.059C142.905 264.321 159.876 273.941 176.969 283.282C182.203 286.128 187.461 288.921 192.738 291.673L178.227 334.967C170.545 336.856 162.851 338.681 155.129 340.356ZM277.659 469.988C241.538 469.988 206.119 461.253 174.449 444.681L203.622 357.646C213.798 355.185 223.925 352.559 234.009 349.804C249.914 345.47 265.666 340.648 281.31 335.521C289.43 340.061 297.423 344.809 305.16 349.908C315.052 356.428 324.67 363.319 333.684 370.817C338.124 374.639 342.593 378.391 346.696 382.453C348.776 384.462 350.777 386.495 352.726 388.551C353.649 389.595 354.623 390.641 355.498 391.675C356.346 392.657 357.371 393.866 357.792 394.567C358.738 396.134 360 397.621 361.516 398.834C364.352 401.106 367.731 402.245 371.113 402.347C373.084 402.514 375.119 402.317 377.123 401.695C385.372 399.126 389.961 390.413 387.371 382.235L363.007 305.283C367.308 303.483 371.607 301.687 375.88 299.82C387.394 294.803 398.785 289.49 410.097 283.98C416.286 280.904 422.432 277.734 428.552 274.5C444.402 284.764 459.782 295.62 474.361 307.148C479.049 310.896 483.629 314.744 488.044 318.698C481.874 337.374 473.24 354.95 462.526 371.054C457.029 370.431 451.505 369.658 445.985 368.767C434.335 366.823 422.624 364.547 410.964 361.898L410.896 361.881C406.994 361.008 402.994 363.208 401.73 367.054C400.389 371.132 402.638 375.518 406.751 376.848C418.391 380.61 430.135 384.238 442.177 387.122C444.573 387.702 446.98 388.261 449.395 388.801C408.777 438.303 346.884 469.988 277.659 469.988ZM517.736 354.772C518.46 356.665 518.825 358.368 518.895 359.611C518.972 360.263 518.88 360.722 518.863 361.173C518.776 361.349 518.821 361.588 518.722 361.745C518.69 361.832 518.667 361.925 518.652 362.02L518.443 362.448C517.9 363.617 517.159 364.646 515.993 365.68C514.838 366.704 513.243 367.687 511.321 368.53C507.844 370.057 503.402 371.105 498.696 371.717C503.622 362.916 508.03 353.792 511.878 344.386C514.385 347.941 516.512 351.536 517.736 354.772ZM527.29 163.35C527.017 164.718 526.378 166.503 525.385 168.411C523.901 171.257 521.774 174.293 519.282 177.288C516.563 168.485 513.364 159.888 509.721 151.523C513.888 152.411 517.789 153.594 520.967 155.091C522.961 156.032 524.597 157.109 525.654 158.09C526.752 159.087 527.064 159.854 527.314 160.498C527.437 161.186 527.581 161.944 527.29 163.35Z" fill="url(#paint0_linear_974_4622)"/>
</g>
<defs>
<filter id="filter0_d_974_4622" x="0" y="0" width="557" height="509.027" filterUnits="userSpaceOnUse" color-interpolation-filters="sRGB">
<feFlood flood-opacity="0" result="BackgroundImageFix"/>
<feColorMatrix in="SourceAlpha" type="matrix" values="0 0 0 0 0 0 0 0 0 0 0 0 0 0 0 0 0 0 127 0" result="hardAlpha"/>
<feOffset dy="4"/>
<feGaussianBlur stdDeviation="2"/>
<feComposite in2="hardAlpha" operator="out"/>
<feColorMatrix type="matrix" values="0 0 0 0 0 0 0 0 0 0 0 0 0 0 0 0 0 0 0.25 0"/>
<feBlend mode="normal" in2="BackgroundImageFix" result="effect1_dropShadow_974_4622"/>
<feBlend mode="normal" in="SourceGraphic" in2="effect1_dropShadow_974_4622" result="shape"/>
</filter>
<linearGradient id="paint0_linear_974_4622" x1="-42.6383" y1="539.672" x2="475.079" y2="0.670035" gradientUnits="userSpaceOnUse">
<stop offset="0.322004" stop-color="#4B4BA1"/>
<stop offset="0.612687" stop-color="#8BD990"/>
<stop offset="0.950917" stop-color="#026873"/>
</linearGradient>
</defs>
</svg>
